<?xml version="1.0" encoding="UTF-8" standalone="no"?>
<!DOCTYPE svg PUBLIC "-//W3C//DTD SVG 1.1//EN"
 "http://www.w3.org/Graphics/SVG/1.1/DTD/svg11.dtd">
<!-- Generated by graphviz version 2.38.0 (20140413.2041)
 -->
<!-- Title: reads_simu Pages: 1 -->
<svg width="1420pt" height="508pt"
 viewBox="0.00 0.00 1419.78 508.00" xmlns="http://www.w3.org/2000/svg" xmlns:xlink="http://www.w3.org/1999/xlink">
<g id="graph0" class="graph" transform="scale(1 1) rotate(0) translate(4 504)">
<title>reads_simu</title>
<polygon fill="white" stroke="none" points="-4,4 -4,-504 1415.78,-504 1415.78,4 -4,4"/>
<g id="clust1" class="cluster"><title>cluster_0</title>
<polygon fill="white" stroke="black" points="211.633,-136 211.633,-348 945.633,-348 945.633,-136 211.633,-136"/>
</g>
<!-- CALL_CreateAlignmentFromSimulation -->
<g id="node1" class="node"><title>CALL_CreateAlignmentFromSimulation</title>
<ellipse fill="none" stroke="black" cx="708.633" cy="-478" rx="145.672" ry="18"/>
<ellipse fill="none" stroke="black" cx="708.633" cy="-478" rx="149.674" ry="22"/>
<text text-anchor="middle" x="708.633" y="-474.3" font-family="Times,serif" font-size="14.00">call CreateAlignmentFromSimulation</text>
</g>
<!-- CALL_GatkGenotyping -->
<g id="node2" class="node"><title>CALL_GatkGenotyping</title>
<ellipse fill="none" stroke="black" cx="708.633" cy="-398" rx="84.4853" ry="18"/>
<ellipse fill="none" stroke="black" cx="708.633" cy="-398" rx="88.485" ry="22"/>
<text text-anchor="middle" x="708.633" y="-394.3" font-family="Times,serif" font-size="14.00">call GatkGenotyping</text>
</g>
<!-- CALL_CreateAlignmentFromSimulation&#45;&gt;CALL_GatkGenotyping -->
<g id="edge1" class="edge"><title>CALL_CreateAlignmentFromSimulation&#45;&gt;CALL_GatkGenotyping</title>
<path fill="none" stroke="black" d="M708.633,-455.686C708.633,-447.798 708.633,-438.684 708.633,-430.103"/>
<polygon fill="black" stroke="black" points="712.133,-430.018 708.633,-420.018 705.133,-430.018 712.133,-430.018"/>
</g>
<!-- CALL_DefaultMaps -->
<g id="node3" class="node"><title>CALL_DefaultMaps</title>
<ellipse fill="none" stroke="black" cx="861.633" cy="-166" rx="72.2799" ry="18"/>
<ellipse fill="none" stroke="black" cx="861.633" cy="-166" rx="76.2875" ry="22"/>
<text text-anchor="middle" x="861.633" y="-162.3" font-family="Times,serif" font-size="14.00">call DefaultMaps</text>
</g>
<!-- CALL_CreateAlignmentFromSimulation&#45;&gt;CALL_DefaultMaps -->
<g id="edge10" class="edge"><title>CALL_CreateAlignmentFromSimulation&#45;&gt;CALL_DefaultMaps</title>
<path fill="none" stroke="black" d="M851.412,-471.367C1030.46,-460.845 1321.69,-431.094 1384.63,-348 1499.46,-196.427 1124.17,-171.035 947.942,-167.316"/>
<polygon fill="black" stroke="black" points="947.974,-163.816 937.908,-167.123 947.839,-170.815 947.974,-163.816"/>
</g>
<!-- CALL_BamCounts4Onemap -->
<g id="node5" class="node"><title>CALL_BamCounts4Onemap</title>
<ellipse fill="none" stroke="black" cx="1056.63" cy="-322" rx="102.882" ry="18"/>
<text text-anchor="middle" x="1056.63" y="-318.3" font-family="Times,serif" font-size="14.00">call BamCounts4Onemap</text>
</g>
<!-- CALL_CreateAlignmentFromSimulation&#45;&gt;CALL_BamCounts4Onemap -->
<g id="edge3" class="edge"><title>CALL_CreateAlignmentFromSimulation&#45;&gt;CALL_BamCounts4Onemap</title>
<path fill="none" stroke="black" d="M844.855,-468.797C922.683,-461.237 1010.13,-446.908 1037.63,-420 1055.97,-402.055 1059.37,-371.979 1059.02,-350.066"/>
<polygon fill="black" stroke="black" points="1062.52,-349.897 1058.6,-340.054 1055.53,-350.192 1062.52,-349.897"/>
</g>
<!-- CALL_GusmapMaps -->
<g id="node7" class="node"><title>CALL_GusmapMaps</title>
<ellipse fill="none" stroke="black" cx="687.633" cy="-166" rx="75.2921" ry="18"/>
<ellipse fill="none" stroke="black" cx="687.633" cy="-166" rx="79.2868" ry="22"/>
<text text-anchor="middle" x="687.633" y="-162.3" font-family="Times,serif" font-size="14.00">call GusmapMaps</text>
</g>
<!-- CALL_CreateAlignmentFromSimulation&#45;&gt;CALL_GusmapMaps -->
<g id="edge38" class="edge"><title>CALL_CreateAlignmentFromSimulation&#45;&gt;CALL_GusmapMaps</title>
<path fill="none" stroke="black" d="M671.01,-456.562C652.708,-446.203 630.616,-433.071 611.633,-420 538.655,-369.75 502.557,-354.336 482.633,-268 478.236,-248.945 470.801,-239.57 482.633,-224 486.991,-218.265 562.139,-198.359 620.198,-183.679"/>
<polygon fill="black" stroke="black" points="621.244,-187.025 630.086,-181.187 619.534,-180.237 621.244,-187.025"/>
</g>
<!-- CALL_SimulatedMap -->
<g id="node8" class="node"><title>CALL_SimulatedMap</title>
<ellipse fill="none" stroke="black" cx="120.633" cy="-246" rx="78.7794" ry="18"/>
<ellipse fill="none" stroke="black" cx="120.633" cy="-246" rx="82.7863" ry="22"/>
<text text-anchor="middle" x="120.633" y="-242.3" font-family="Times,serif" font-size="14.00">call SimulatedMap</text>
</g>
<!-- CALL_CreateAlignmentFromSimulation&#45;&gt;CALL_SimulatedMap -->
<g id="edge14" class="edge"><title>CALL_CreateAlignmentFromSimulation&#45;&gt;CALL_SimulatedMap</title>
<path fill="none" stroke="black" d="M578.444,-467.159C471.278,-453.789 319.362,-422.272 207.633,-348 179.389,-329.225 154.971,-298.848 139.255,-276.304"/>
<polygon fill="black" stroke="black" points="141.983,-274.091 133.468,-267.787 136.193,-278.025 141.983,-274.091"/>
</g>
<!-- CALL_SNPCallerMaps -->
<g id="node9" class="node"><title>CALL_SNPCallerMaps</title>
<ellipse fill="none" stroke="black" cx="306.633" cy="-166" rx="83.3768" ry="18"/>
<ellipse fill="none" stroke="black" cx="306.633" cy="-166" rx="87.3857" ry="22"/>
<text text-anchor="middle" x="306.633" y="-162.3" font-family="Times,serif" font-size="14.00">call SNPCallerMaps</text>
</g>
<!-- CALL_CreateAlignmentFromSimulation&#45;&gt;CALL_SNPCallerMaps -->
<g id="edge6" class="edge"><title>CALL_CreateAlignmentFromSimulation&#45;&gt;CALL_SNPCallerMaps</title>
<path fill="none" stroke="black" d="M564.243,-472.248C420.119,-465.802 209.613,-451.274 134.633,-420 88.3101,-400.679 77.2018,-388.556 47.6329,-348 14.1016,-302.009 -20.5389,-267.944 15.6329,-224 40.3298,-193.996 137.103,-179.557 212.352,-172.76"/>
<polygon fill="black" stroke="black" points="212.69,-176.243 222.349,-171.89 212.083,-169.27 212.69,-176.243"/>
</g>
<!-- CALL_ScatterAt131_13 -->
<g id="node11" class="node"><title>CALL_ScatterAt131_13</title>
<ellipse fill="none" stroke="black" cx="500.633" cy="-166" rx="85.2787" ry="18"/>
<ellipse fill="none" stroke="black" cx="500.633" cy="-166" rx="89.2851" ry="22"/>
<text text-anchor="middle" x="500.633" y="-162.3" font-family="Times,serif" font-size="14.00">call ScatterAt131_13</text>
</g>
<!-- CALL_CreateAlignmentFromSimulation&#45;&gt;CALL_ScatterAt131_13 -->
<g id="edge22" class="edge"><title>CALL_CreateAlignmentFromSimulation&#45;&gt;CALL_ScatterAt131_13</title>
<path fill="none" stroke="black" d="M577.971,-467.286C465.618,-457.704 312.899,-441.399 255.633,-420 141.896,-377.5 85.8162,-375.109 28.6329,-268 -27.8822,-162.142 179.101,-222.591 402.633,-188 410.79,-186.738 419.289,-185.222 427.723,-183.591"/>
<polygon fill="black" stroke="black" points="428.446,-187.015 437.57,-181.63 427.079,-180.15 428.446,-187.015"/>
</g>
<!-- CALL_FreebayesGenotyping -->
<g id="node13" class="node"><title>CALL_FreebayesGenotyping</title>
<ellipse fill="none" stroke="black" cx="921.633" cy="-398" rx="102.875" ry="18"/>
<ellipse fill="none" stroke="black" cx="921.633" cy="-398" rx="106.882" ry="22"/>
<text text-anchor="middle" x="921.633" y="-394.3" font-family="Times,serif" font-size="14.00">call FreebayesGenotyping</text>
</g>
<!-- CALL_CreateAlignmentFromSimulation&#45;&gt;CALL_FreebayesGenotyping -->
<g id="edge17" class="edge"><title>CALL_CreateAlignmentFromSimulation&#45;&gt;CALL_FreebayesGenotyping</title>
<path fill="none" stroke="black" d="M762.107,-457.418C792.372,-446.335 830.307,-432.443 861.591,-420.987"/>
<polygon fill="black" stroke="black" points="862.883,-424.241 871.07,-417.516 860.476,-417.668 862.883,-424.241"/>
</g>
<!-- CALL_CalculateVcfMetrics -->
<g id="node14" class="node"><title>CALL_CalculateVcfMetrics</title>
<ellipse fill="none" stroke="black" cx="1276.63" cy="-322" rx="99.3824" ry="18"/>
<text text-anchor="middle" x="1276.63" y="-318.3" font-family="Times,serif" font-size="14.00">call CalculateVcfMetrics</text>
</g>
<!-- CALL_CreateAlignmentFromSimulation&#45;&gt;CALL_CalculateVcfMetrics -->
<g id="edge19" class="edge"><title>CALL_CreateAlignmentFromSimulation&#45;&gt;CALL_CalculateVcfMetrics</title>
<path fill="none" stroke="black" d="M830.548,-465.215C899.134,-456.617 985.768,-442.448 1060.63,-420 1125.24,-400.627 1195.77,-366.237 1238.08,-344.04"/>
<polygon fill="black" stroke="black" points="1239.98,-346.995 1247.19,-339.225 1236.71,-340.808 1239.98,-346.995"/>
</g>
<!-- CALL_GatkGenotyping&#45;&gt;CALL_BamCounts4Onemap -->
<g id="edge15" class="edge"><title>CALL_GatkGenotyping&#45;&gt;CALL_BamCounts4Onemap</title>
<path fill="none" stroke="black" d="M773.031,-382.858C783.905,-380.528 795.084,-378.167 805.633,-376 869.498,-362.879 885.877,-361.642 949.633,-348 962.343,-345.281 975.866,-342.238 988.87,-339.236"/>
<polygon fill="black" stroke="black" points="989.742,-342.627 998.691,-336.955 988.159,-335.809 989.742,-342.627"/>
</g>
<!-- SCATTER_0_VARIABLE_vcf -->
<g id="node6" class="node"><title>SCATTER_0_VARIABLE_vcf</title>
<polygon fill="none" stroke="black" points="848.84,-322 769.237,-340 610.029,-340 530.426,-322 610.029,-304 769.237,-304 848.84,-322"/>
<text text-anchor="middle" x="689.633" y="-318.3" font-family="Times,serif" font-size="14.00">scatter over Pair[String, File] as vcf</text>
</g>
<!-- CALL_GatkGenotyping&#45;&gt;SCATTER_0_VARIABLE_vcf -->
<g id="edge35" class="edge"><title>CALL_GatkGenotyping&#45;&gt;SCATTER_0_VARIABLE_vcf</title>
<path fill="none" stroke="black" d="M703.239,-375.993C701.18,-367.973 698.802,-358.712 696.616,-350.197"/>
<polygon fill="black" stroke="black" points="699.956,-349.13 694.079,-340.315 693.176,-350.871 699.956,-349.13"/>
</g>
<!-- CALL_GatkGenotyping&#45;&gt;CALL_CalculateVcfMetrics -->
<g id="edge32" class="edge"><title>CALL_GatkGenotyping&#45;&gt;CALL_CalculateVcfMetrics</title>
<path fill="none" stroke="black" d="M770.76,-382.238C782.302,-379.87 794.295,-377.657 805.633,-376 965.745,-352.604 1008.69,-372.538 1168.63,-348 1183.01,-345.795 1198.31,-342.713 1212.73,-339.465"/>
<polygon fill="black" stroke="black" points="1213.6,-342.857 1222.55,-337.198 1212.02,-336.036 1213.6,-342.857"/>
</g>
<!-- CALL_JointReports -->
<g id="node4" class="node"><title>CALL_JointReports</title>
<ellipse fill="none" stroke="black" cx="687.633" cy="-90" rx="70.3881" ry="18"/>
<text text-anchor="middle" x="687.633" y="-86.3" font-family="Times,serif" font-size="14.00">call JointReports</text>
</g>
<!-- CALL_DefaultMaps&#45;&gt;CALL_JointReports -->
<g id="edge2" class="edge"><title>CALL_DefaultMaps&#45;&gt;CALL_JointReports</title>
<path fill="none" stroke="black" d="M820.397,-147.463C793.698,-136.108 758.96,-121.334 731.714,-109.747"/>
<polygon fill="black" stroke="black" points="732.987,-106.485 722.415,-105.792 730.247,-112.927 732.987,-106.485"/>
</g>
<!-- CALL_CreateTables -->
<g id="node12" class="node"><title>CALL_CreateTables</title>
<ellipse fill="none" stroke="black" cx="1339.63" cy="-18" rx="72.2875" ry="18"/>
<text text-anchor="middle" x="1339.63" y="-14.3" font-family="Times,serif" font-size="14.00">call CreateTables</text>
</g>
<!-- CALL_JointReports&#45;&gt;CALL_CreateTables -->
<g id="edge27" class="edge"><title>CALL_JointReports&#45;&gt;CALL_CreateTables</title>
<path fill="none" stroke="black" d="M751.039,-82.1926C871.928,-69.2137 1134.85,-40.9856 1264.41,-27.0765"/>
<polygon fill="black" stroke="black" points="1265.06,-30.5262 1274.63,-25.9786 1264.32,-23.5662 1265.06,-30.5262"/>
</g>
<!-- CALL_BamCounts4Onemap&#45;&gt;CALL_CreateTables -->
<g id="edge16" class="edge"><title>CALL_BamCounts4Onemap&#45;&gt;CALL_CreateTables</title>
<path fill="none" stroke="black" d="M1072.66,-303.898C1120.33,-253.027 1261.36,-102.528 1316.84,-43.3201"/>
<polygon fill="black" stroke="black" points="1319.5,-45.6047 1323.78,-35.9146 1314.39,-40.8182 1319.5,-45.6047"/>
</g>
<!-- CALL_BamDepths2Vcf -->
<g id="node15" class="node"><title>CALL_BamDepths2Vcf</title>
<ellipse fill="none" stroke="black" cx="774.633" cy="-246" rx="85.2851" ry="18"/>
<text text-anchor="middle" x="774.633" y="-242.3" font-family="Times,serif" font-size="14.00">call BamDepths2Vcf</text>
</g>
<!-- CALL_BamCounts4Onemap&#45;&gt;CALL_BamDepths2Vcf -->
<g id="edge26" class="edge"><title>CALL_BamCounts4Onemap&#45;&gt;CALL_BamDepths2Vcf</title>
<path fill="none" stroke="black" d="M1001.93,-306.644C954.275,-294.14 885.259,-276.029 835.795,-263.05"/>
<polygon fill="black" stroke="black" points="836.424,-259.596 825.863,-260.443 834.647,-266.367 836.424,-259.596"/>
</g>
<!-- SCATTER_0_VARIABLE_vcf&#45;&gt;CALL_DefaultMaps -->
<g id="edge18" class="edge"><title>SCATTER_0_VARIABLE_vcf&#45;&gt;CALL_DefaultMaps</title>
<path fill="none" stroke="black" d="M776.188,-305.547C815.933,-296.515 856.852,-283.775 868.633,-268 883.432,-248.183 879.847,-219.636 873.617,-197.944"/>
<polygon fill="black" stroke="black" points="876.889,-196.682 870.521,-188.215 870.219,-198.805 876.889,-196.682"/>
</g>
<!-- SCATTER_0_VARIABLE_vcf&#45;&gt;CALL_GusmapMaps -->
<g id="edge4" class="edge"><title>SCATTER_0_VARIABLE_vcf&#45;&gt;CALL_GusmapMaps</title>
<path fill="none" stroke="black" d="M685.979,-303.908C683.957,-293.569 681.652,-280.09 680.633,-268 678.668,-244.691 680.638,-218.322 682.982,-198.373"/>
<polygon fill="black" stroke="black" points="686.474,-198.656 684.262,-188.294 679.53,-197.774 686.474,-198.656"/>
</g>
<!-- SCATTER_0_VARIABLE_vcf&#45;&gt;CALL_SNPCallerMaps -->
<g id="edge29" class="edge"><title>SCATTER_0_VARIABLE_vcf&#45;&gt;CALL_SNPCallerMaps</title>
<path fill="none" stroke="black" d="M605.638,-304.916C567.348,-296.219 521.9,-283.949 482.633,-268 432.233,-247.529 378.6,-215.007 343.971,-192.42"/>
<polygon fill="black" stroke="black" points="345.868,-189.478 335.59,-186.904 342.02,-195.325 345.868,-189.478"/>
</g>
<!-- CALL_vcf2onemap -->
<g id="node10" class="node"><title>CALL_vcf2onemap</title>
<ellipse fill="none" stroke="black" cx="561.633" cy="-246" rx="69.5877" ry="18"/>
<text text-anchor="middle" x="561.633" y="-242.3" font-family="Times,serif" font-size="14.00">call vcf2onemap</text>
</g>
<!-- SCATTER_0_VARIABLE_vcf&#45;&gt;CALL_vcf2onemap -->
<g id="edge11" class="edge"><title>SCATTER_0_VARIABLE_vcf&#45;&gt;CALL_vcf2onemap</title>
<path fill="none" stroke="black" d="M659.945,-303.837C641.373,-293.1 617.326,-279.198 597.664,-267.831"/>
<polygon fill="black" stroke="black" points="599.383,-264.782 588.974,-262.807 595.88,-270.842 599.383,-264.782"/>
</g>
<!-- SCATTER_0_VARIABLE_vcf&#45;&gt;CALL_ScatterAt131_13 -->
<g id="edge37" class="edge"><title>SCATTER_0_VARIABLE_vcf&#45;&gt;CALL_ScatterAt131_13</title>
<path fill="none" stroke="black" d="M685.088,-304C678.571,-282.645 664.63,-246.125 640.633,-224 621.556,-206.411 596.33,-193.906 572.552,-185.181"/>
<polygon fill="black" stroke="black" points="573.42,-181.777 562.825,-181.787 571.114,-188.386 573.42,-181.777"/>
</g>
<!-- SCATTER_0_VARIABLE_vcf&#45;&gt;CALL_BamDepths2Vcf -->
<g id="edge21" class="edge"><title>SCATTER_0_VARIABLE_vcf&#45;&gt;CALL_BamDepths2Vcf</title>
<path fill="none" stroke="black" d="M709.347,-303.837C720.773,-293.89 735.317,-281.228 747.777,-270.38"/>
<polygon fill="black" stroke="black" points="750.366,-272.767 755.61,-263.561 745.77,-267.487 750.366,-272.767"/>
</g>
<!-- CALL_GusmapMaps&#45;&gt;CALL_JointReports -->
<g id="edge13" class="edge"><title>CALL_GusmapMaps&#45;&gt;CALL_JointReports</title>
<path fill="none" stroke="black" d="M687.633,-143.993C687.633,-136.061 687.633,-126.915 687.633,-118.478"/>
<polygon fill="black" stroke="black" points="691.133,-118.315 687.633,-108.315 684.133,-118.315 691.133,-118.315"/>
</g>
<!-- CALL_SimulatedMap&#45;&gt;CALL_DefaultMaps -->
<g id="edge5" class="edge"><title>CALL_SimulatedMap&#45;&gt;CALL_DefaultMaps</title>
<path fill="none" stroke="black" d="M176.978,-229.896C187.123,-227.607 197.647,-225.51 207.633,-224 457.741,-186.181 525.575,-226.15 775.633,-188 782.922,-186.888 790.5,-185.455 798.002,-183.861"/>
<polygon fill="black" stroke="black" points="798.787,-187.272 807.789,-181.685 797.268,-180.438 798.787,-187.272"/>
</g>
<!-- CALL_SimulatedMap&#45;&gt;CALL_GusmapMaps -->
<g id="edge28" class="edge"><title>CALL_SimulatedMap&#45;&gt;CALL_GusmapMaps</title>
<path fill="none" stroke="black" d="M177.484,-230.026C187.48,-227.753 197.823,-225.627 207.633,-224 379.795,-195.451 426.398,-216.107 598.633,-188 606.041,-186.791 613.749,-185.312 621.393,-183.705"/>
<polygon fill="black" stroke="black" points="622.349,-187.079 631.374,-181.529 620.858,-180.239 622.349,-187.079"/>
</g>
<!-- CALL_SimulatedMap&#45;&gt;CALL_SNPCallerMaps -->
<g id="edge12" class="edge"><title>CALL_SimulatedMap&#45;&gt;CALL_SNPCallerMaps</title>
<path fill="none" stroke="black" d="M163.305,-227.105C190.19,-215.831 225.104,-201.19 253.741,-189.18"/>
<polygon fill="black" stroke="black" points="255.324,-192.312 263.192,-185.217 252.617,-185.857 255.324,-192.312"/>
</g>
<!-- CALL_SimulatedMap&#45;&gt;CALL_ScatterAt131_13 -->
<g id="edge33" class="edge"><title>CALL_SimulatedMap&#45;&gt;CALL_ScatterAt131_13</title>
<path fill="none" stroke="black" d="M179.501,-230.333C188.891,-228.125 198.514,-225.941 207.633,-224 293.833,-205.654 316.203,-205.235 402.633,-188 410.192,-186.493 418.069,-184.878 425.928,-183.239"/>
<polygon fill="black" stroke="black" points="426.781,-186.636 435.848,-181.155 425.342,-179.786 426.781,-186.636"/>
</g>
<!-- CALL_SNPCallerMaps&#45;&gt;CALL_JointReports -->
<g id="edge34" class="edge"><title>CALL_SNPCallerMaps&#45;&gt;CALL_JointReports</title>
<path fill="none" stroke="black" d="M358.101,-148.038C372.414,-143.709 388.037,-139.34 402.633,-136 474.147,-119.633 557.114,-107.265 615.024,-99.6769"/>
<polygon fill="black" stroke="black" points="615.708,-103.118 625.176,-98.362 614.809,-96.1756 615.708,-103.118"/>
</g>
<!-- CALL_vcf2onemap&#45;&gt;CALL_DefaultMaps -->
<g id="edge25" class="edge"><title>CALL_vcf2onemap&#45;&gt;CALL_DefaultMaps</title>
<path fill="none" stroke="black" d="M608.838,-232.727C659.428,-219.573 740.076,-198.605 796.644,-183.897"/>
<polygon fill="black" stroke="black" points="797.764,-187.222 806.561,-181.319 796.002,-180.448 797.764,-187.222"/>
</g>
<!-- CALL_vcf2onemap&#45;&gt;CALL_SNPCallerMaps -->
<g id="edge9" class="edge"><title>CALL_vcf2onemap&#45;&gt;CALL_SNPCallerMaps</title>
<path fill="none" stroke="black" d="M518.376,-231.768C477.649,-219.311 416.166,-200.504 369.928,-186.361"/>
<polygon fill="black" stroke="black" points="370.892,-182.996 360.305,-183.417 368.844,-189.69 370.892,-182.996"/>
</g>
<!-- CALL_vcf2onemap&#45;&gt;CALL_ScatterAt131_13 -->
<g id="edge7" class="edge"><title>CALL_vcf2onemap&#45;&gt;CALL_ScatterAt131_13</title>
<path fill="none" stroke="black" d="M548.397,-228.075C541.025,-218.649 531.648,-206.658 523.157,-195.801"/>
<polygon fill="black" stroke="black" points="525.802,-193.502 516.885,-187.781 520.288,-197.814 525.802,-193.502"/>
</g>
<!-- CALL_ScatterAt131_13&#45;&gt;CALL_JointReports -->
<g id="edge8" class="edge"><title>CALL_ScatterAt131_13&#45;&gt;CALL_JointReports</title>
<path fill="none" stroke="black" d="M546.378,-146.898C575.328,-135.442 612.626,-120.682 641.625,-109.206"/>
<polygon fill="black" stroke="black" points="643.107,-112.384 651.118,-105.45 640.532,-105.875 643.107,-112.384"/>
</g>
<!-- CALL_FreebayesGenotyping&#45;&gt;CALL_BamCounts4Onemap -->
<g id="edge24" class="edge"><title>CALL_FreebayesGenotyping&#45;&gt;CALL_BamCounts4Onemap</title>
<path fill="none" stroke="black" d="M957.81,-377.169C976.335,-367.015 998.905,-354.644 1017.8,-344.289"/>
<polygon fill="black" stroke="black" points="1019.65,-347.262 1026.74,-339.386 1016.29,-341.123 1019.65,-347.262"/>
</g>
<!-- CALL_FreebayesGenotyping&#45;&gt;SCATTER_0_VARIABLE_vcf -->
<g id="edge36" class="edge"><title>CALL_FreebayesGenotyping&#45;&gt;SCATTER_0_VARIABLE_vcf</title>
<path fill="none" stroke="black" d="M865.768,-379.181C831.697,-368.314 788.06,-354.395 752.744,-343.13"/>
<polygon fill="black" stroke="black" points="753.609,-339.733 743.019,-340.028 751.482,-346.402 753.609,-339.733"/>
</g>
<!-- CALL_FreebayesGenotyping&#45;&gt;CALL_CalculateVcfMetrics -->
<g id="edge20" class="edge"><title>CALL_FreebayesGenotyping&#45;&gt;CALL_CalculateVcfMetrics</title>
<path fill="none" stroke="black" d="M997.707,-382.554C1046.61,-373.107 1111.47,-360.284 1168.63,-348 1181.68,-345.197 1195.58,-342.079 1208.91,-339.021"/>
<polygon fill="black" stroke="black" points="1210.02,-342.358 1218.98,-336.702 1208.45,-335.537 1210.02,-342.358"/>
</g>
<!-- CALL_CalculateVcfMetrics&#45;&gt;CALL_CreateTables -->
<g id="edge23" class="edge"><title>CALL_CalculateVcfMetrics&#45;&gt;CALL_CreateTables</title>
<path fill="none" stroke="black" d="M1313.88,-305.058C1329.1,-296.461 1345.1,-284.232 1353.63,-268 1391.92,-195.162 1365.64,-93.2353 1349.56,-45.5563"/>
<polygon fill="black" stroke="black" points="1352.82,-44.2584 1346.22,-35.97 1346.21,-46.5648 1352.82,-44.2584"/>
</g>
<!-- CALL_BamDepths2Vcf&#45;&gt;CALL_GusmapMaps -->
<g id="edge31" class="edge"><title>CALL_BamDepths2Vcf&#45;&gt;CALL_GusmapMaps</title>
<path fill="none" stroke="black" d="M755.755,-228.075C744.664,-218.131 730.388,-205.332 717.773,-194.022"/>
<polygon fill="black" stroke="black" points="719.958,-191.28 710.175,-187.211 715.285,-196.492 719.958,-191.28"/>
</g>
<!-- CALL_BamDepths2Vcf&#45;&gt;CALL_ScatterAt131_13 -->
<g id="edge30" class="edge"><title>CALL_BamDepths2Vcf&#45;&gt;CALL_ScatterAt131_13</title>
<path fill="none" stroke="black" d="M725.963,-231.145C681.795,-218.572 616.273,-199.919 567.254,-185.965"/>
<polygon fill="black" stroke="black" points="567.946,-182.523 557.37,-183.151 566.03,-189.256 567.946,-182.523"/>
</g>
</g>
</svg>
