<?xml version="1.0" encoding="UTF-8" standalone="no"?>
<!DOCTYPE svg PUBLIC "-//W3C//DTD SVG 1.1//EN"
 "http://www.w3.org/Graphics/SVG/1.1/DTD/svg11.dtd">
<!-- Generated by graphviz version 2.38.0 (20140413.2041)
 -->
<!-- Title: pirs_profiles Pages: 1 -->
<svg width="342pt" height="188pt"
 viewBox="0.00 0.00 341.69 188.00" xmlns="http://www.w3.org/2000/svg" xmlns:xlink="http://www.w3.org/1999/xlink">
<g id="graph0" class="graph" transform="scale(1 1) rotate(0) translate(4 184)">
<title>pirs_profiles</title>
<polygon fill="white" stroke="none" points="-4,4 -4,-184 337.689,-184 337.689,4 -4,4"/>
<!-- CALL_SoapAlign -->
<g id="node1" class="node"><title>CALL_SoapAlign</title>
<ellipse fill="none" stroke="black" cx="203.894" cy="-162" rx="63.8893" ry="18"/>
<text text-anchor="middle" x="203.894" y="-158.3" font-family="Times,serif" font-size="14.00">call SoapAlign</text>
</g>
<!-- CALL_Soap2sam -->
<g id="node2" class="node"><title>CALL_Soap2sam</title>
<ellipse fill="none" stroke="black" cx="133.894" cy="-90" rx="62.2891" ry="18"/>
<text text-anchor="middle" x="133.894" y="-86.3" font-family="Times,serif" font-size="14.00">call Soap2sam</text>
</g>
<!-- CALL_SoapAlign&#45;&gt;CALL_Soap2sam -->
<g id="edge1" class="edge"><title>CALL_SoapAlign&#45;&gt;CALL_Soap2sam</title>
<path fill="none" stroke="black" d="M187.305,-144.411C178.413,-135.519 167.305,-124.411 157.525,-114.631"/>
<polygon fill="black" stroke="black" points="159.91,-112.066 150.364,-107.47 154.96,-117.016 159.91,-112.066"/>
</g>
<!-- CALL_GCDepth -->
<g id="node3" class="node"><title>CALL_GCDepth</title>
<ellipse fill="none" stroke="black" cx="273.894" cy="-90" rx="59.5901" ry="18"/>
<text text-anchor="middle" x="273.894" y="-86.3" font-family="Times,serif" font-size="14.00">call GCDepth</text>
</g>
<!-- CALL_SoapAlign&#45;&gt;CALL_GCDepth -->
<g id="edge2" class="edge"><title>CALL_SoapAlign&#45;&gt;CALL_GCDepth</title>
<path fill="none" stroke="black" d="M220.483,-144.411C229.375,-135.519 240.483,-124.411 250.263,-114.631"/>
<polygon fill="black" stroke="black" points="252.828,-117.016 257.424,-107.47 247.878,-112.066 252.828,-117.016"/>
</g>
<!-- CALL_BaseCalling -->
<g id="node4" class="node"><title>CALL_BaseCalling</title>
<ellipse fill="none" stroke="black" cx="68.8939" cy="-18" rx="68.7879" ry="18"/>
<text text-anchor="middle" x="68.8939" y="-14.3" font-family="Times,serif" font-size="14.00">call BaseCalling</text>
</g>
<!-- CALL_Soap2sam&#45;&gt;CALL_BaseCalling -->
<g id="edge3" class="edge"><title>CALL_Soap2sam&#45;&gt;CALL_BaseCalling</title>
<path fill="none" stroke="black" d="M118.49,-72.411C110.432,-63.7338 100.415,-52.946 91.497,-43.3418"/>
<polygon fill="black" stroke="black" points="94.0083,-40.9026 84.6389,-35.9562 88.8787,-45.6658 94.0083,-40.9026"/>
</g>
<!-- CALL_Indel -->
<g id="node5" class="node"><title>CALL_Indel</title>
<ellipse fill="none" stroke="black" cx="199.894" cy="-18" rx="44.393" ry="18"/>
<text text-anchor="middle" x="199.894" y="-14.3" font-family="Times,serif" font-size="14.00">call Indel</text>
</g>
<!-- CALL_Soap2sam&#45;&gt;CALL_Indel -->
<g id="edge4" class="edge"><title>CALL_Soap2sam&#45;&gt;CALL_Indel</title>
<path fill="none" stroke="black" d="M149.535,-72.411C157.957,-63.4786 168.488,-52.3096 177.739,-42.4976"/>
<polygon fill="black" stroke="black" points="180.506,-44.6651 184.819,-34.9881 175.413,-39.863 180.506,-44.6651"/>
</g>
</g>
</svg>
