<?xml version="1.0" encoding="UTF-8" standalone="no"?>
<!DOCTYPE svg PUBLIC "-//W3C//DTD SVG 1.1//EN"
 "http://www.w3.org/Graphics/SVG/1.1/DTD/svg11.dtd">
<!-- Generated by graphviz version 2.38.0 (20140413.2041)
 -->
<!-- Title: CreateAlignmentFromFamilies Pages: 1 -->
<svg width="314pt" height="204pt"
 viewBox="0.00 0.00 314.00 204.00" xmlns="http://www.w3.org/2000/svg" xmlns:xlink="http://www.w3.org/1999/xlink">
<g id="graph0" class="graph" transform="scale(1 1) rotate(0) translate(4 200)">
<title>CreateAlignmentFromFamilies</title>
<polygon fill="white" stroke="none" points="-4,4 -4,-200 310,-200 310,4 -4,4"/>
<g id="clust1" class="cluster"><title>cluster_0</title>
<polygon fill="white" stroke="black" points="8,-8 8,-132 298,-132 298,-8 8,-8"/>
</g>
<!-- CALL_SepareIndividuals -->
<g id="node1" class="node"><title>CALL_SepareIndividuals</title>
<ellipse fill="none" stroke="black" cx="153" cy="-178" rx="89.0842" ry="18"/>
<text text-anchor="middle" x="153" y="-174.3" font-family="Times,serif" font-size="14.00">call SepareIndividuals</text>
</g>
<!-- SCATTER_0_VARIABLE_sample -->
<g id="node2" class="node"><title>SCATTER_0_VARIABLE_sample</title>
<polygon fill="none" stroke="black" points="289.678,-106 221.339,-124 84.661,-124 16.322,-106 84.661,-88 221.339,-88 289.678,-106"/>
<text text-anchor="middle" x="153" y="-102.3" font-family="Times,serif" font-size="14.00">scatter over Sample as sample</text>
</g>
<!-- CALL_SepareIndividuals&#45;&gt;SCATTER_0_VARIABLE_sample -->
<g id="edge1" class="edge"><title>CALL_SepareIndividuals&#45;&gt;SCATTER_0_VARIABLE_sample</title>
<path fill="none" stroke="black" d="M153,-159.697C153,-151.983 153,-142.712 153,-134.112"/>
<polygon fill="black" stroke="black" points="156.5,-134.104 153,-124.104 149.5,-134.104 156.5,-134.104"/>
</g>
<!-- CALL_RunBwaAlignment -->
<g id="node3" class="node"><title>CALL_RunBwaAlignment</title>
<ellipse fill="none" stroke="black" cx="153" cy="-34" rx="94.7833" ry="18"/>
<text text-anchor="middle" x="153" y="-30.3" font-family="Times,serif" font-size="14.00">call RunBwaAlignment</text>
</g>
<!-- SCATTER_0_VARIABLE_sample&#45;&gt;CALL_RunBwaAlignment -->
<g id="edge2" class="edge"><title>SCATTER_0_VARIABLE_sample&#45;&gt;CALL_RunBwaAlignment</title>
<path fill="none" stroke="black" d="M153,-87.6966C153,-79.9827 153,-70.7125 153,-62.1124"/>
<polygon fill="black" stroke="black" points="156.5,-62.1043 153,-52.1043 149.5,-62.1044 156.5,-62.1043"/>
</g>
</g>
</svg>
