<?xml version="1.0" encoding="UTF-8" standalone="no"?>
<!DOCTYPE svg PUBLIC "-//W3C//DTD SVG 1.1//EN"
 "http://www.w3.org/Graphics/SVG/1.1/DTD/svg11.dtd">
<!-- Generated by graphviz version 2.38.0 (20140413.2041)
 -->
<!-- Title: CreateAlignmentFromSimulation Pages: 1 -->
<svg width="456pt" height="708pt"
 viewBox="0.00 0.00 455.59 708.00" xmlns="http://www.w3.org/2000/svg" xmlns:xlink="http://www.w3.org/1999/xlink">
<g id="graph0" class="graph" transform="scale(1 1) rotate(0) translate(4 704)">
<title>CreateAlignmentFromSimulation</title>
<polygon fill="white" stroke="none" points="-4,4 -4,-704 451.591,-704 451.591,4 -4,4"/>
<g id="clust1" class="cluster"><title>cluster_0</title>
<polygon fill="white" stroke="black" points="113.591,-8 113.591,-348 439.591,-348 439.591,-8 113.591,-8"/>
</g>
<!-- SCATTER_0_VARIABLE_sampleName -->
<g id="node1" class="node"><title>SCATTER_0_VARIABLE_sampleName</title>
<polygon fill="none" stroke="black" points="431.793,-322 354.192,-340 198.989,-340 121.388,-322 198.989,-304 354.192,-304 431.793,-322"/>
<text text-anchor="middle" x="276.591" y="-318.3" font-family="Times,serif" font-size="14.00">scatter over String as sampleName</text>
</g>
<!-- CALL_RunVcf2diploid -->
<g id="node2" class="node"><title>CALL_RunVcf2diploid</title>
<ellipse fill="none" stroke="black" cx="204.591" cy="-250" rx="83.3857" ry="18"/>
<text text-anchor="middle" x="204.591" y="-246.3" font-family="Times,serif" font-size="14.00">call RunVcf2diploid</text>
</g>
<!-- SCATTER_0_VARIABLE_sampleName&#45;&gt;CALL_RunVcf2diploid -->
<g id="edge1" class="edge"><title>SCATTER_0_VARIABLE_sampleName&#45;&gt;CALL_RunVcf2diploid</title>
<path fill="none" stroke="black" d="M258.793,-303.697C249.767,-294.921 238.669,-284.132 228.871,-274.606"/>
<polygon fill="black" stroke="black" points="231.298,-272.084 221.688,-267.622 226.418,-277.103 231.298,-272.084"/>
</g>
<!-- CALL_SimulateRADseq -->
<g id="node7" class="node"><title>CALL_SimulateRADseq</title>
<ellipse fill="none" stroke="black" cx="219.591" cy="-178" rx="87.9851" ry="18"/>
<text text-anchor="middle" x="219.591" y="-174.3" font-family="Times,serif" font-size="14.00">call SimulateRADseq</text>
</g>
<!-- SCATTER_0_VARIABLE_sampleName&#45;&gt;CALL_SimulateRADseq -->
<g id="edge6" class="edge"><title>SCATTER_0_VARIABLE_sampleName&#45;&gt;CALL_SimulateRADseq</title>
<path fill="none" stroke="black" d="M287.165,-303.686C297.069,-285.049 308.676,-254.989 296.591,-232 289.535,-218.578 277.372,-207.893 264.77,-199.735"/>
<polygon fill="black" stroke="black" points="266.407,-196.636 256.032,-194.489 262.804,-202.638 266.407,-196.636"/>
</g>
<!-- CALL_SimulateIlluminaReads -->
<g id="node8" class="node"><title>CALL_SimulateIlluminaReads</title>
<ellipse fill="none" stroke="black" cx="230.591" cy="-106" rx="109.381" ry="18"/>
<text text-anchor="middle" x="230.591" y="-102.3" font-family="Times,serif" font-size="14.00">call SimulateIlluminaReads</text>
</g>
<!-- SCATTER_0_VARIABLE_sampleName&#45;&gt;CALL_SimulateIlluminaReads -->
<g id="edge8" class="edge"><title>SCATTER_0_VARIABLE_sampleName&#45;&gt;CALL_SimulateIlluminaReads</title>
<path fill="none" stroke="black" d="M288.515,-303.941C308.313,-273.321 343.269,-207.779 316.591,-160 308.875,-146.183 295.914,-135.521 282.364,-127.507"/>
<polygon fill="black" stroke="black" points="283.877,-124.345 273.424,-122.617 280.517,-130.487 283.877,-124.345"/>
</g>
<!-- CALL_RunBwaAlignment -->
<g id="node9" class="node"><title>CALL_RunBwaAlignment</title>
<ellipse fill="none" stroke="black" cx="283.591" cy="-34" rx="94.7833" ry="18"/>
<text text-anchor="middle" x="283.591" y="-30.3" font-family="Times,serif" font-size="14.00">call RunBwaAlignment</text>
</g>
<!-- SCATTER_0_VARIABLE_sampleName&#45;&gt;CALL_RunBwaAlignment -->
<g id="edge12" class="edge"><title>SCATTER_0_VARIABLE_sampleName&#45;&gt;CALL_RunBwaAlignment</title>
<path fill="none" stroke="black" d="M294.557,-303.947C303.72,-294.255 314.241,-281.401 320.591,-268 348.506,-209.08 342.34,-188.898 348.591,-124 350.125,-108.074 355.454,-102.453 348.591,-88 342.767,-75.7371 332.564,-65.3766 321.943,-57.1593"/>
<polygon fill="black" stroke="black" points="323.966,-54.3026 313.806,-51.2972 319.874,-59.9823 323.966,-54.3026"/>
</g>
<!-- CALL_RunVcf2diploid&#45;&gt;CALL_SimulateRADseq -->
<g id="edge9" class="edge"><title>CALL_RunVcf2diploid&#45;&gt;CALL_SimulateRADseq</title>
<path fill="none" stroke="black" d="M208.298,-231.697C209.951,-223.983 211.938,-214.712 213.781,-206.112"/>
<polygon fill="black" stroke="black" points="217.252,-206.616 215.925,-196.104 210.408,-205.149 217.252,-206.616"/>
</g>
<!-- CALL_CreatePedigreeSimulatorInputs -->
<g id="node3" class="node"><title>CALL_CreatePedigreeSimulatorInputs</title>
<ellipse fill="none" stroke="black" cx="173.591" cy="-610" rx="136.476" ry="18"/>
<text text-anchor="middle" x="173.591" y="-606.3" font-family="Times,serif" font-size="14.00">call CreatePedigreeSimulatorInputs</text>
</g>
<!-- CALL_RunPedigreeSimulator -->
<g id="node4" class="node"><title>CALL_RunPedigreeSimulator</title>
<ellipse fill="none" stroke="black" cx="106.591" cy="-538" rx="106.681" ry="18"/>
<text text-anchor="middle" x="106.591" y="-534.3" font-family="Times,serif" font-size="14.00">call RunPedigreeSimulator</text>
</g>
<!-- CALL_CreatePedigreeSimulatorInputs&#45;&gt;CALL_RunPedigreeSimulator -->
<g id="edge2" class="edge"><title>CALL_CreatePedigreeSimulatorInputs&#45;&gt;CALL_RunPedigreeSimulator</title>
<path fill="none" stroke="black" d="M157.372,-592.055C149.182,-583.498 139.095,-572.959 130.074,-563.535"/>
<polygon fill="black" stroke="black" points="132.569,-561.079 123.125,-556.275 127.512,-565.92 132.569,-561.079"/>
</g>
<!-- CALL_ConvertPedigreeSimulationToVcf -->
<g id="node5" class="node"><title>CALL_ConvertPedigreeSimulationToVcf</title>
<ellipse fill="none" stroke="black" cx="173.591" cy="-466" rx="146.774" ry="18"/>
<text text-anchor="middle" x="173.591" y="-462.3" font-family="Times,serif" font-size="14.00">call ConvertPedigreeSimulationToVcf</text>
</g>
<!-- CALL_CreatePedigreeSimulatorInputs&#45;&gt;CALL_ConvertPedigreeSimulationToVcf -->
<g id="edge3" class="edge"><title>CALL_CreatePedigreeSimulatorInputs&#45;&gt;CALL_ConvertPedigreeSimulationToVcf</title>
<path fill="none" stroke="black" d="M195.487,-592.108C205.815,-582.732 217.064,-570.12 222.591,-556 228.423,-541.101 228.423,-534.899 222.591,-520 218.359,-509.19 210.773,-499.263 202.815,-490.995"/>
<polygon fill="black" stroke="black" points="205.104,-488.339 195.487,-483.892 200.231,-493.365 205.104,-488.339"/>
</g>
<!-- CALL_RunPedigreeSimulator&#45;&gt;CALL_ConvertPedigreeSimulationToVcf -->
<g id="edge5" class="edge"><title>CALL_RunPedigreeSimulator&#45;&gt;CALL_ConvertPedigreeSimulationToVcf</title>
<path fill="none" stroke="black" d="M122.809,-520.055C130.999,-511.498 141.087,-500.959 150.107,-491.535"/>
<polygon fill="black" stroke="black" points="152.669,-493.92 157.056,-484.275 147.613,-489.079 152.669,-493.92"/>
</g>
<!-- CALL_ConvertPedigreeSimulationToVcf&#45;&gt;CALL_RunVcf2diploid -->
<g id="edge14" class="edge"><title>CALL_ConvertPedigreeSimulationToVcf&#45;&gt;CALL_RunVcf2diploid</title>
<path fill="none" stroke="black" d="M157.434,-447.739C131.042,-417.356 84.321,-352.911 112.591,-304 121.222,-289.066 135.836,-277.968 150.906,-269.897"/>
<polygon fill="black" stroke="black" points="152.884,-272.824 160.299,-265.256 149.783,-266.548 152.884,-272.824"/>
</g>
<!-- CALL_GenerateSampleNames -->
<g id="node6" class="node"><title>CALL_GenerateSampleNames</title>
<ellipse fill="none" stroke="black" cx="253.591" cy="-394" rx="109.381" ry="18"/>
<text text-anchor="middle" x="253.591" y="-390.3" font-family="Times,serif" font-size="14.00">call GenerateSampleNames</text>
</g>
<!-- CALL_ConvertPedigreeSimulationToVcf&#45;&gt;CALL_GenerateSampleNames -->
<g id="edge11" class="edge"><title>CALL_ConvertPedigreeSimulationToVcf&#45;&gt;CALL_GenerateSampleNames</title>
<path fill="none" stroke="black" d="M192.956,-448.055C203.078,-439.199 215.626,-428.219 226.677,-418.549"/>
<polygon fill="black" stroke="black" points="229.182,-421.008 234.403,-411.789 224.573,-415.74 229.182,-421.008"/>
</g>
<!-- CALL_GenerateSampleNames&#45;&gt;SCATTER_0_VARIABLE_sampleName -->
<g id="edge4" class="edge"><title>CALL_GenerateSampleNames&#45;&gt;SCATTER_0_VARIABLE_sampleName</title>
<path fill="none" stroke="black" d="M259.276,-375.697C261.838,-367.898 264.923,-358.509 267.775,-349.829"/>
<polygon fill="black" stroke="black" points="271.174,-350.697 270.971,-340.104 264.524,-348.512 271.174,-350.697"/>
</g>
<!-- CALL_SimulateRADseq&#45;&gt;CALL_SimulateIlluminaReads -->
<g id="edge7" class="edge"><title>CALL_SimulateRADseq&#45;&gt;CALL_SimulateIlluminaReads</title>
<path fill="none" stroke="black" d="M222.31,-159.697C223.522,-151.983 224.979,-142.712 226.33,-134.112"/>
<polygon fill="black" stroke="black" points="229.808,-134.526 227.903,-124.104 222.893,-133.44 229.808,-134.526"/>
</g>
<!-- CALL_SimulateIlluminaReads&#45;&gt;CALL_RunBwaAlignment -->
<g id="edge10" class="edge"><title>CALL_SimulateIlluminaReads&#45;&gt;CALL_RunBwaAlignment</title>
<path fill="none" stroke="black" d="M243.42,-88.055C249.706,-79.7526 257.406,-69.5837 264.376,-60.3778"/>
<polygon fill="black" stroke="black" points="267.265,-62.3606 270.511,-52.2753 261.684,-58.1352 267.265,-62.3606"/>
</g>
<!-- CALL_GenerateAlternativeGenome -->
<g id="node10" class="node"><title>CALL_GenerateAlternativeGenome</title>
<ellipse fill="none" stroke="black" cx="173.591" cy="-682" rx="127.277" ry="18"/>
<text text-anchor="middle" x="173.591" y="-678.3" font-family="Times,serif" font-size="14.00">call GenerateAlternativeGenome</text>
</g>
<!-- CALL_GenerateAlternativeGenome&#45;&gt;CALL_CreatePedigreeSimulatorInputs -->
<g id="edge13" class="edge"><title>CALL_GenerateAlternativeGenome&#45;&gt;CALL_CreatePedigreeSimulatorInputs</title>
<path fill="none" stroke="black" d="M173.591,-663.697C173.591,-655.983 173.591,-646.712 173.591,-638.112"/>
<polygon fill="black" stroke="black" points="177.091,-638.104 173.591,-628.104 170.091,-638.104 177.091,-638.104"/>
</g>
</g>
</svg>
