<?xml version="1.0" encoding="UTF-8" standalone="no"?>
<!DOCTYPE svg PUBLIC "-//W3C//DTD SVG 1.1//EN"
 "http://www.w3.org/Graphics/SVG/1.1/DTD/svg11.dtd">
<!-- Generated by graphviz version 2.38.0 (20140413.2041)
 -->
<!-- Title: DefaultMaps Pages: 1 -->
<svg width="390pt" height="276pt"
 viewBox="0.00 0.00 390.00 276.00" xmlns="http://www.w3.org/2000/svg" xmlns:xlink="http://www.w3.org/1999/xlink">
<g id="graph0" class="graph" transform="scale(1 1) rotate(0) translate(4 272)">
<title>DefaultMaps</title>
<polygon fill="white" stroke="none" points="-4,4 -4,-272 386,-272 386,4 -4,4"/>
<g id="clust1" class="cluster"><title>cluster_0</title>
<polygon fill="white" stroke="black" points="8,-8 8,-204 374,-204 374,-8 8,-8"/>
</g>
<!-- SCATTER_0_VARIABLE_objects -->
<g id="node1" class="node"><title>SCATTER_0_VARIABLE_objects</title>
<polygon fill="none" stroke="black" points="365.728,-178 278.364,-196 103.636,-196 16.2721,-178 103.636,-160 278.364,-160 365.728,-178"/>
<text text-anchor="middle" x="191" y="-174.3" font-family="Times,serif" font-size="14.00">scatter over Pair[String, File] as objects</text>
</g>
<!-- CALL_ErrorsReport -->
<g id="node2" class="node"><title>CALL_ErrorsReport</title>
<ellipse fill="none" stroke="black" cx="87" cy="-106" rx="71.4873" ry="18"/>
<text text-anchor="middle" x="87" y="-102.3" font-family="Times,serif" font-size="14.00">call ErrorsReport</text>
</g>
<!-- SCATTER_0_VARIABLE_objects&#45;&gt;CALL_ErrorsReport -->
<g id="edge1" class="edge"><title>SCATTER_0_VARIABLE_objects&#45;&gt;CALL_ErrorsReport</title>
<path fill="none" stroke="black" d="M165.559,-159.876C151.584,-150.47 134.111,-138.709 119.194,-128.669"/>
<polygon fill="black" stroke="black" points="121.003,-125.668 110.753,-122.987 117.094,-131.475 121.003,-125.668"/>
</g>
<!-- CALL_FiltersReport -->
<g id="node4" class="node"><title>CALL_FiltersReport</title>
<ellipse fill="none" stroke="black" cx="249" cy="-106" rx="72.2875" ry="18"/>
<text text-anchor="middle" x="249" y="-102.3" font-family="Times,serif" font-size="14.00">call FiltersReport</text>
</g>
<!-- SCATTER_0_VARIABLE_objects&#45;&gt;CALL_FiltersReport -->
<g id="edge5" class="edge"><title>SCATTER_0_VARIABLE_objects&#45;&gt;CALL_FiltersReport</title>
<path fill="none" stroke="black" d="M205.337,-159.697C212.291,-151.305 220.77,-141.07 228.401,-131.861"/>
<polygon fill="black" stroke="black" points="231.143,-134.038 234.828,-124.104 225.753,-129.571 231.143,-134.038"/>
</g>
<!-- CALL_MapsReport -->
<g id="node5" class="node"><title>CALL_MapsReport</title>
<ellipse fill="none" stroke="black" cx="272" cy="-34" rx="69.5877" ry="18"/>
<text text-anchor="middle" x="272" y="-30.3" font-family="Times,serif" font-size="14.00">call MapsReport</text>
</g>
<!-- SCATTER_0_VARIABLE_objects&#45;&gt;CALL_MapsReport -->
<g id="edge4" class="edge"><title>SCATTER_0_VARIABLE_objects&#45;&gt;CALL_MapsReport</title>
<path fill="none" stroke="black" d="M281.14,-160.418C300.308,-152.571 318.278,-141.014 330,-124 339.077,-110.824 336.454,-102.641 330,-88 324.703,-75.9847 315.189,-65.5114 305.377,-57.1194"/>
<polygon fill="black" stroke="black" points="307.518,-54.3503 297.52,-50.8457 303.151,-59.8205 307.518,-54.3503"/>
</g>
<!-- CALL_GlobalError -->
<g id="node3" class="node"><title>CALL_GlobalError</title>
<ellipse fill="none" stroke="black" cx="191" cy="-250" rx="68.4888" ry="18"/>
<text text-anchor="middle" x="191" y="-246.3" font-family="Times,serif" font-size="14.00">call GlobalError</text>
</g>
<!-- CALL_GlobalError&#45;&gt;SCATTER_0_VARIABLE_objects -->
<g id="edge2" class="edge"><title>CALL_GlobalError&#45;&gt;SCATTER_0_VARIABLE_objects</title>
<path fill="none" stroke="black" d="M191,-231.697C191,-223.983 191,-214.712 191,-206.112"/>
<polygon fill="black" stroke="black" points="194.5,-206.104 191,-196.104 187.5,-206.104 194.5,-206.104"/>
</g>
<!-- CALL_FiltersReport&#45;&gt;CALL_MapsReport -->
<g id="edge3" class="edge"><title>CALL_FiltersReport&#45;&gt;CALL_MapsReport</title>
<path fill="none" stroke="black" d="M254.685,-87.6966C257.248,-79.8979 260.333,-70.5085 263.185,-61.8292"/>
<polygon fill="black" stroke="black" points="266.584,-62.6972 266.38,-52.1043 259.933,-60.5121 266.584,-62.6972"/>
</g>
</g>
</svg>
