<?xml version="1.0" encoding="UTF-8" standalone="no"?>
<!DOCTYPE svg PUBLIC "-//W3C//DTD SVG 1.1//EN"
 "http://www.w3.org/Graphics/SVG/1.1/DTD/svg11.dtd">
<!-- Generated by graphviz version 2.38.0 (20140413.2041)
 -->
<!-- Title: DefaultMaps Pages: 1 -->
<svg width="402pt" height="276pt"
 viewBox="0.00 0.00 402.00 276.00" xmlns="http://www.w3.org/2000/svg" xmlns:xlink="http://www.w3.org/1999/xlink">
<g id="graph0" class="graph" transform="scale(1 1) rotate(0) translate(4 272)">
<title>DefaultMaps</title>
<polygon fill="white" stroke="none" points="-4,4 -4,-272 398,-272 398,4 -4,4"/>
<g id="clust1" class="cluster"><title>cluster_0</title>
<polygon fill="white" stroke="black" points="8,-8 8,-204 386,-204 386,-8 8,-8"/>
</g>
<!-- CALL_GlobalError -->
<g id="node1" class="node"><title>CALL_GlobalError</title>
<ellipse fill="none" stroke="black" cx="191" cy="-250" rx="68.4888" ry="18"/>
<text text-anchor="middle" x="191" y="-246.3" font-family="Times,serif" font-size="14.00">call GlobalError</text>
</g>
<!-- SCATTER_0_VARIABLE_objects -->
<g id="node2" class="node"><title>SCATTER_0_VARIABLE_objects</title>
<polygon fill="none" stroke="black" points="365.728,-178 278.364,-196 103.636,-196 16.2721,-178 103.636,-160 278.364,-160 365.728,-178"/>
<text text-anchor="middle" x="191" y="-174.3" font-family="Times,serif" font-size="14.00">scatter over Pair[String, File] as objects</text>
</g>
<!-- CALL_GlobalError&#45;&gt;SCATTER_0_VARIABLE_objects -->
<g id="edge1" class="edge"><title>CALL_GlobalError&#45;&gt;SCATTER_0_VARIABLE_objects</title>
<path fill="none" stroke="black" d="M191,-231.697C191,-223.983 191,-214.712 191,-206.112"/>
<polygon fill="black" stroke="black" points="194.5,-206.104 191,-196.104 187.5,-206.104 194.5,-206.104"/>
</g>
<!-- CALL_CheckDepths -->
<g id="node3" class="node"><title>CALL_CheckDepths</title>
<ellipse fill="none" stroke="black" cx="89" cy="-106" rx="73.387" ry="18"/>
<text text-anchor="middle" x="89" y="-102.3" font-family="Times,serif" font-size="14.00">call CheckDepths</text>
</g>
<!-- SCATTER_0_VARIABLE_objects&#45;&gt;CALL_CheckDepths -->
<g id="edge2" class="edge"><title>SCATTER_0_VARIABLE_objects&#45;&gt;CALL_CheckDepths</title>
<path fill="none" stroke="black" d="M166.048,-159.876C152.441,-150.538 135.451,-138.878 120.891,-128.886"/>
<polygon fill="black" stroke="black" points="122.869,-125.998 112.643,-123.226 118.908,-131.77 122.869,-125.998"/>
</g>
<!-- CALL_MapsReportEmp -->
<g id="node4" class="node"><title>CALL_MapsReportEmp</title>
<ellipse fill="none" stroke="black" cx="235" cy="-34" rx="87.1846" ry="18"/>
<text text-anchor="middle" x="235" y="-30.3" font-family="Times,serif" font-size="14.00">call MapsReportEmp</text>
</g>
<!-- SCATTER_0_VARIABLE_objects&#45;&gt;CALL_MapsReportEmp -->
<g id="edge3" class="edge"><title>SCATTER_0_VARIABLE_objects&#45;&gt;CALL_MapsReportEmp</title>
<path fill="none" stroke="black" d="M187.614,-159.676C184.787,-141.293 182.448,-111.689 191,-88 194.816,-77.4299 201.759,-67.4786 209.019,-59.116"/>
<polygon fill="black" stroke="black" points="211.744,-61.3254 215.985,-51.6166 206.615,-56.5612 211.744,-61.3254"/>
</g>
<!-- CALL_FiltersReportEmp -->
<g id="node5" class="node"><title>CALL_FiltersReportEmp</title>
<ellipse fill="none" stroke="black" cx="289" cy="-106" rx="89.0842" ry="18"/>
<text text-anchor="middle" x="289" y="-102.3" font-family="Times,serif" font-size="14.00">call FiltersReportEmp</text>
</g>
<!-- SCATTER_0_VARIABLE_objects&#45;&gt;CALL_FiltersReportEmp -->
<g id="edge4" class="edge"><title>SCATTER_0_VARIABLE_objects&#45;&gt;CALL_FiltersReportEmp</title>
<path fill="none" stroke="black" d="M214.973,-159.876C227.831,-150.692 243.832,-139.263 257.664,-129.383"/>
<polygon fill="black" stroke="black" points="259.846,-132.126 265.949,-123.465 255.777,-126.429 259.846,-132.126"/>
</g>
<!-- CALL_FiltersReportEmp&#45;&gt;CALL_MapsReportEmp -->
<g id="edge5" class="edge"><title>CALL_FiltersReportEmp&#45;&gt;CALL_MapsReportEmp</title>
<path fill="none" stroke="black" d="M275.928,-88.055C269.523,-79.7526 261.679,-69.5837 254.577,-60.3778"/>
<polygon fill="black" stroke="black" points="257.206,-58.0553 248.327,-52.2753 251.663,-62.331 257.206,-58.0553"/>
</g>
</g>
</svg>
