<?xml version="1.0" encoding="UTF-8" standalone="no"?>
<!DOCTYPE svg PUBLIC "-//W3C//DTD SVG 1.1//EN"
 "http://www.w3.org/Graphics/SVG/1.1/DTD/svg11.dtd">
<!-- Generated by graphviz version 2.38.0 (20140413.2041)
 -->
<!-- Title: EmpiricalReads Pages: 1 -->
<svg width="963pt" height="428pt"
 viewBox="0.00 0.00 962.69 428.00" xmlns="http://www.w3.org/2000/svg" xmlns:xlink="http://www.w3.org/1999/xlink">
<g id="graph0" class="graph" transform="scale(1 1) rotate(0) translate(4 424)">
<title>EmpiricalReads</title>
<polygon fill="white" stroke="none" points="-4,4 -4,-424 958.691,-424 958.691,4 -4,4"/>
<g id="clust1" class="cluster"><title>cluster_0</title>
<polygon fill="white" stroke="black" points="8,-64 8,-268 741,-268 741,-64 8,-64"/>
</g>
<!-- CALL_DefaultMaps -->
<g id="node1" class="node"><title>CALL_DefaultMaps</title>
<ellipse fill="none" stroke="black" cx="92" cy="-94" rx="72.2799" ry="18"/>
<ellipse fill="none" stroke="black" cx="92" cy="-94" rx="76.2875" ry="22"/>
<text text-anchor="middle" x="92" y="-90.3" font-family="Times,serif" font-size="14.00">call DefaultMaps</text>
</g>
<!-- CALL_JointReports -->
<g id="node2" class="node"><title>CALL_JointReports</title>
<ellipse fill="none" stroke="black" cx="370" cy="-18" rx="70.3881" ry="18"/>
<text text-anchor="middle" x="370" y="-14.3" font-family="Times,serif" font-size="14.00">call JointReports</text>
</g>
<!-- CALL_DefaultMaps&#45;&gt;CALL_JointReports -->
<g id="edge1" class="edge"><title>CALL_DefaultMaps&#45;&gt;CALL_JointReports</title>
<path fill="none" stroke="black" d="M138.056,-76.3526C150.608,-72.0719 164.259,-67.649 177,-64 219.963,-51.6955 269.015,-40.2923 306.917,-32.0435"/>
<polygon fill="black" stroke="black" points="307.762,-35.4417 316.798,-29.9093 306.284,-28.5994 307.762,-35.4417"/>
</g>
<!-- SCATTER_0_VARIABLE_vcf -->
<g id="node3" class="node"><title>SCATTER_0_VARIABLE_vcf</title>
<polygon fill="none" stroke="black" points="656.207,-242 576.604,-260 417.396,-260 337.793,-242 417.396,-224 576.604,-224 656.207,-242"/>
<text text-anchor="middle" x="497" y="-238.3" font-family="Times,serif" font-size="14.00">scatter over Pair[String, File] as vcf</text>
</g>
<!-- SCATTER_0_VARIABLE_vcf&#45;&gt;CALL_DefaultMaps -->
<g id="edge13" class="edge"><title>SCATTER_0_VARIABLE_vcf&#45;&gt;CALL_DefaultMaps</title>
<path fill="none" stroke="black" d="M385.404,-231.178C333.245,-223.743 271.266,-210.73 219,-188 182.075,-171.941 145.583,-143.56 121.259,-122.36"/>
<polygon fill="black" stroke="black" points="123.298,-119.49 113.493,-115.475 118.653,-124.728 123.298,-119.49"/>
</g>
<!-- CALL_GusmapMaps -->
<g id="node4" class="node"><title>CALL_GusmapMaps</title>
<ellipse fill="none" stroke="black" cx="654" cy="-94" rx="75.2921" ry="18"/>
<ellipse fill="none" stroke="black" cx="654" cy="-94" rx="79.2868" ry="22"/>
<text text-anchor="middle" x="654" y="-90.3" font-family="Times,serif" font-size="14.00">call GusmapMaps</text>
</g>
<!-- SCATTER_0_VARIABLE_vcf&#45;&gt;CALL_GusmapMaps -->
<g id="edge2" class="edge"><title>SCATTER_0_VARIABLE_vcf&#45;&gt;CALL_GusmapMaps</title>
<path fill="none" stroke="black" d="M501.351,-223.944C507.093,-204.417 518.9,-172.491 539,-152 554.492,-136.208 575.263,-124.092 594.889,-115.176"/>
<polygon fill="black" stroke="black" points="596.321,-118.369 604.102,-111.178 593.535,-111.948 596.321,-118.369"/>
</g>
<!-- CALL_BamDepths2Vcf -->
<g id="node5" class="node"><title>CALL_BamDepths2Vcf</title>
<ellipse fill="none" stroke="black" cx="633" cy="-170" rx="85.2851" ry="18"/>
<text text-anchor="middle" x="633" y="-166.3" font-family="Times,serif" font-size="14.00">call BamDepths2Vcf</text>
</g>
<!-- SCATTER_0_VARIABLE_vcf&#45;&gt;CALL_BamDepths2Vcf -->
<g id="edge14" class="edge"><title>SCATTER_0_VARIABLE_vcf&#45;&gt;CALL_BamDepths2Vcf</title>
<path fill="none" stroke="black" d="M530.269,-223.876C549.142,-214.162 572.893,-201.937 592.803,-191.69"/>
<polygon fill="black" stroke="black" points="594.649,-194.676 601.939,-186.987 591.446,-188.452 594.649,-194.676"/>
</g>
<!-- CALL_ScatterAt108_13 -->
<g id="node6" class="node"><title>CALL_ScatterAt108_13</title>
<ellipse fill="none" stroke="black" cx="467" cy="-94" rx="85.2787" ry="18"/>
<ellipse fill="none" stroke="black" cx="467" cy="-94" rx="89.2851" ry="22"/>
<text text-anchor="middle" x="467" y="-90.3" font-family="Times,serif" font-size="14.00">call ScatterAt108_13</text>
</g>
<!-- SCATTER_0_VARIABLE_vcf&#45;&gt;CALL_ScatterAt108_13 -->
<g id="edge20" class="edge"><title>SCATTER_0_VARIABLE_vcf&#45;&gt;CALL_ScatterAt108_13</title>
<path fill="none" stroke="black" d="M493.5,-223.966C488.578,-200.012 479.527,-155.964 473.387,-126.085"/>
<polygon fill="black" stroke="black" points="476.79,-125.255 471.349,-116.164 469.933,-126.664 476.79,-125.255"/>
</g>
<!-- CALL_vcf2onemap -->
<g id="node7" class="node"><title>CALL_vcf2onemap</title>
<ellipse fill="none" stroke="black" cx="298" cy="-170" rx="69.5877" ry="18"/>
<text text-anchor="middle" x="298" y="-166.3" font-family="Times,serif" font-size="14.00">call vcf2onemap</text>
</g>
<!-- SCATTER_0_VARIABLE_vcf&#45;&gt;CALL_vcf2onemap -->
<g id="edge6" class="edge"><title>SCATTER_0_VARIABLE_vcf&#45;&gt;CALL_vcf2onemap</title>
<path fill="none" stroke="black" d="M448.574,-223.966C417.845,-213.157 378.2,-199.211 347.304,-188.343"/>
<polygon fill="black" stroke="black" points="348.197,-184.947 337.602,-184.93 345.874,-191.55 348.197,-184.947"/>
</g>
<!-- CALL_SNPCallerMaps -->
<g id="node8" class="node"><title>CALL_SNPCallerMaps</title>
<ellipse fill="none" stroke="black" cx="273" cy="-94" rx="83.3768" ry="18"/>
<ellipse fill="none" stroke="black" cx="273" cy="-94" rx="87.3857" ry="22"/>
<text text-anchor="middle" x="273" y="-90.3" font-family="Times,serif" font-size="14.00">call SNPCallerMaps</text>
</g>
<!-- SCATTER_0_VARIABLE_vcf&#45;&gt;CALL_SNPCallerMaps -->
<g id="edge18" class="edge"><title>SCATTER_0_VARIABLE_vcf&#45;&gt;CALL_SNPCallerMaps</title>
<path fill="none" stroke="black" d="M475.523,-223.669C451.993,-205.018 412.818,-174.946 377,-152 358.841,-140.367 338.131,-128.711 319.998,-118.999"/>
<polygon fill="black" stroke="black" points="321.252,-115.702 310.778,-114.107 317.972,-121.885 321.252,-115.702"/>
</g>
<!-- CALL_GusmapMaps&#45;&gt;CALL_JointReports -->
<g id="edge9" class="edge"><title>CALL_GusmapMaps&#45;&gt;CALL_JointReports</title>
<path fill="none" stroke="black" d="M605.735,-76.416C592.593,-72.1352 578.31,-67.6964 565,-64 521.209,-51.8381 471.256,-40.3557 432.872,-32.0338"/>
<polygon fill="black" stroke="black" points="433.385,-28.564 422.872,-29.8803 431.911,-35.4072 433.385,-28.564"/>
</g>
<!-- CALL_BamDepths2Vcf&#45;&gt;CALL_GusmapMaps -->
<g id="edge19" class="edge"><title>CALL_BamDepths2Vcf&#45;&gt;CALL_GusmapMaps</title>
<path fill="none" stroke="black" d="M637.871,-151.837C640.071,-144.082 642.741,-134.675 645.269,-125.766"/>
<polygon fill="black" stroke="black" points="648.668,-126.608 648.031,-116.032 641.934,-124.697 648.668,-126.608"/>
</g>
<!-- CALL_BamDepths2Vcf&#45;&gt;CALL_ScatterAt108_13 -->
<g id="edge3" class="edge"><title>CALL_BamDepths2Vcf&#45;&gt;CALL_ScatterAt108_13</title>
<path fill="none" stroke="black" d="M598.201,-153.487C574.916,-143.107 543.885,-129.274 517.848,-117.667"/>
<polygon fill="black" stroke="black" points="519.064,-114.377 508.505,-113.502 516.213,-120.771 519.064,-114.377"/>
</g>
<!-- CALL_ScatterAt108_13&#45;&gt;CALL_JointReports -->
<g id="edge10" class="edge"><title>CALL_ScatterAt108_13&#45;&gt;CALL_JointReports</title>
<path fill="none" stroke="black" d="M440.75,-72.9745C428.047,-63.2835 412.744,-51.609 399.625,-41.6002"/>
<polygon fill="black" stroke="black" points="401.441,-38.5839 391.368,-35.3011 397.195,-44.1493 401.441,-38.5839"/>
</g>
<!-- CALL_vcf2onemap&#45;&gt;CALL_DefaultMaps -->
<g id="edge16" class="edge"><title>CALL_vcf2onemap&#45;&gt;CALL_DefaultMaps</title>
<path fill="none" stroke="black" d="M258.768,-154.907C227.397,-143.638 183.015,-127.695 147.922,-115.088"/>
<polygon fill="black" stroke="black" points="148.883,-111.715 138.289,-111.628 146.517,-118.303 148.883,-111.715"/>
</g>
<!-- CALL_vcf2onemap&#45;&gt;CALL_ScatterAt108_13 -->
<g id="edge11" class="edge"><title>CALL_vcf2onemap&#45;&gt;CALL_ScatterAt108_13</title>
<path fill="none" stroke="black" d="M331.793,-154.203C355.748,-143.714 388.329,-129.448 415.506,-117.548"/>
<polygon fill="black" stroke="black" points="417.114,-120.665 424.87,-113.447 414.306,-114.252 417.114,-120.665"/>
</g>
<!-- CALL_vcf2onemap&#45;&gt;CALL_SNPCallerMaps -->
<g id="edge4" class="edge"><title>CALL_vcf2onemap&#45;&gt;CALL_SNPCallerMaps</title>
<path fill="none" stroke="black" d="M292.202,-151.837C289.582,-144.082 286.404,-134.675 283.394,-125.766"/>
<polygon fill="black" stroke="black" points="286.622,-124.386 280.105,-116.032 279.99,-126.626 286.622,-124.386"/>
</g>
<!-- CALL_SNPCallerMaps&#45;&gt;CALL_JointReports -->
<g id="edge21" class="edge"><title>CALL_SNPCallerMaps&#45;&gt;CALL_JointReports</title>
<path fill="none" stroke="black" d="M299.25,-72.9745C311.953,-63.2835 327.256,-51.609 340.375,-41.6002"/>
<polygon fill="black" stroke="black" points="342.805,-44.1493 348.632,-35.3011 338.559,-38.5839 342.805,-44.1493"/>
</g>
<!-- CALL_CreateAlignmentFromFamilies -->
<g id="node9" class="node"><title>CALL_CreateAlignmentFromFamilies</title>
<ellipse fill="none" stroke="black" cx="717" cy="-398" rx="137.272" ry="18"/>
<ellipse fill="none" stroke="black" cx="717" cy="-398" rx="141.276" ry="22"/>
<text text-anchor="middle" x="717" y="-394.3" font-family="Times,serif" font-size="14.00">call CreateAlignmentFromFamilies</text>
</g>
<!-- CALL_FreebayesGenotyping -->
<g id="node10" class="node"><title>CALL_FreebayesGenotyping</title>
<ellipse fill="none" stroke="black" cx="717" cy="-318" rx="102.875" ry="18"/>
<ellipse fill="none" stroke="black" cx="717" cy="-318" rx="106.882" ry="22"/>
<text text-anchor="middle" x="717" y="-314.3" font-family="Times,serif" font-size="14.00">call FreebayesGenotyping</text>
</g>
<!-- CALL_CreateAlignmentFromFamilies&#45;&gt;CALL_FreebayesGenotyping -->
<g id="edge5" class="edge"><title>CALL_CreateAlignmentFromFamilies&#45;&gt;CALL_FreebayesGenotyping</title>
<path fill="none" stroke="black" d="M717,-375.686C717,-367.798 717,-358.684 717,-350.103"/>
<polygon fill="black" stroke="black" points="720.5,-350.018 717,-340.018 713.5,-350.018 720.5,-350.018"/>
</g>
<!-- CALL_GatkGenotyping -->
<g id="node11" class="node"><title>CALL_GatkGenotyping</title>
<ellipse fill="none" stroke="black" cx="504" cy="-318" rx="84.4853" ry="18"/>
<ellipse fill="none" stroke="black" cx="504" cy="-318" rx="88.485" ry="22"/>
<text text-anchor="middle" x="504" y="-314.3" font-family="Times,serif" font-size="14.00">call GatkGenotyping</text>
</g>
<!-- CALL_CreateAlignmentFromFamilies&#45;&gt;CALL_GatkGenotyping -->
<g id="edge7" class="edge"><title>CALL_CreateAlignmentFromFamilies&#45;&gt;CALL_GatkGenotyping</title>
<path fill="none" stroke="black" d="M663.801,-377.519C632.757,-366.15 593.572,-351.801 561.774,-340.157"/>
<polygon fill="black" stroke="black" points="562.754,-336.788 552.16,-336.636 560.347,-343.362 562.754,-336.788"/>
</g>
<!-- CALL_BamCounts4Onemap -->
<g id="node12" class="node"><title>CALL_BamCounts4Onemap</title>
<ellipse fill="none" stroke="black" cx="852" cy="-242" rx="102.882" ry="18"/>
<text text-anchor="middle" x="852" y="-238.3" font-family="Times,serif" font-size="14.00">call BamCounts4Onemap</text>
</g>
<!-- CALL_CreateAlignmentFromFamilies&#45;&gt;CALL_BamCounts4Onemap -->
<g id="edge8" class="edge"><title>CALL_CreateAlignmentFromFamilies&#45;&gt;CALL_BamCounts4Onemap</title>
<path fill="none" stroke="black" d="M780.642,-378.209C800.107,-369.518 819.831,-357.189 833,-340 848.197,-320.164 852.253,-291.509 852.925,-270.487"/>
<polygon fill="black" stroke="black" points="856.427,-270.304 853.009,-260.276 849.427,-270.247 856.427,-270.304"/>
</g>
<!-- CALL_FreebayesGenotyping&#45;&gt;SCATTER_0_VARIABLE_vcf -->
<g id="edge23" class="edge"><title>CALL_FreebayesGenotyping&#45;&gt;SCATTER_0_VARIABLE_vcf</title>
<path fill="none" stroke="black" d="M663.182,-298.898C631.111,-288.11 590.331,-274.393 557.194,-263.247"/>
<polygon fill="black" stroke="black" points="558.214,-259.898 547.62,-260.027 555.983,-266.532 558.214,-259.898"/>
</g>
<!-- CALL_FreebayesGenotyping&#45;&gt;CALL_BamCounts4Onemap -->
<g id="edge15" class="edge"><title>CALL_FreebayesGenotyping&#45;&gt;CALL_BamCounts4Onemap</title>
<path fill="none" stroke="black" d="M753.178,-297.169C771.703,-287.015 794.272,-274.644 813.163,-264.289"/>
<polygon fill="black" stroke="black" points="815.021,-267.262 822.107,-259.386 811.656,-261.123 815.021,-267.262"/>
</g>
<!-- CALL_GatkGenotyping&#45;&gt;SCATTER_0_VARIABLE_vcf -->
<g id="edge22" class="edge"><title>CALL_GatkGenotyping&#45;&gt;SCATTER_0_VARIABLE_vcf</title>
<path fill="none" stroke="black" d="M502.013,-295.993C501.263,-288.061 500.397,-278.915 499.599,-270.478"/>
<polygon fill="black" stroke="black" points="503.064,-269.941 498.638,-260.315 496.095,-270.6 503.064,-269.941"/>
</g>
<!-- CALL_GatkGenotyping&#45;&gt;CALL_BamCounts4Onemap -->
<g id="edge12" class="edge"><title>CALL_GatkGenotyping&#45;&gt;CALL_BamCounts4Onemap</title>
<path fill="none" stroke="black" d="M568.398,-302.858C579.272,-300.528 590.451,-298.167 601,-296 664.865,-282.879 681.244,-281.642 745,-268 757.71,-265.281 771.233,-262.238 784.237,-259.236"/>
<polygon fill="black" stroke="black" points="785.109,-262.627 794.058,-256.955 783.526,-255.809 785.109,-262.627"/>
</g>
<!-- CALL_BamCounts4Onemap&#45;&gt;CALL_BamDepths2Vcf -->
<g id="edge17" class="edge"><title>CALL_BamCounts4Onemap&#45;&gt;CALL_BamDepths2Vcf</title>
<path fill="none" stroke="black" d="M805.019,-225.983C770.669,-215.004 723.976,-200.079 687.905,-188.549"/>
<polygon fill="black" stroke="black" points="688.623,-185.105 678.032,-185.394 686.491,-191.772 688.623,-185.105"/>
</g>
</g>
</svg>
