<?xml version="1.0" encoding="UTF-8" standalone="no"?>
<!DOCTYPE svg PUBLIC "-//W3C//DTD SVG 1.1//EN"
 "http://www.w3.org/Graphics/SVG/1.1/DTD/svg11.dtd">
<!-- Generated by graphviz version 2.38.0 (20140413.2041)
 -->
<!-- Title: FreebayesGenotyping Pages: 1 -->
<svg width="566pt" height="276pt"
 viewBox="0.00 0.00 565.74 276.00" xmlns="http://www.w3.org/2000/svg" xmlns:xlink="http://www.w3.org/1999/xlink">
<g id="graph0" class="graph" transform="scale(1 1) rotate(0) translate(4 272)">
<title>FreebayesGenotyping</title>
<polygon fill="white" stroke="none" points="-4,4 -4,-272 561.741,-272 561.741,4 -4,4"/>
<g id="clust1" class="cluster"><title>cluster_0</title>
<polygon fill="white" stroke="black" points="211.741,-8 211.741,-132 549.741,-132 549.741,-8 211.741,-8"/>
</g>
<!-- CALL_RunFreebayes -->
<g id="node1" class="node"><title>CALL_RunFreebayes</title>
<ellipse fill="none" stroke="black" cx="100.741" cy="-250" rx="76.0865" ry="18"/>
<text text-anchor="middle" x="100.741" y="-246.3" font-family="Times,serif" font-size="14.00">call RunFreebayes</text>
</g>
<!-- CALL_TabixVcf -->
<g id="node2" class="node"><title>CALL_TabixVcf</title>
<ellipse fill="none" stroke="black" cx="100.741" cy="-178" rx="59.5901" ry="18"/>
<text text-anchor="middle" x="100.741" y="-174.3" font-family="Times,serif" font-size="14.00">call TabixVcf</text>
</g>
<!-- CALL_RunFreebayes&#45;&gt;CALL_TabixVcf -->
<g id="edge1" class="edge"><title>CALL_RunFreebayes&#45;&gt;CALL_TabixVcf</title>
<path fill="none" stroke="black" d="M100.741,-231.697C100.741,-223.983 100.741,-214.712 100.741,-206.112"/>
<polygon fill="black" stroke="black" points="104.241,-206.104 100.741,-196.104 97.2412,-206.104 104.241,-206.104"/>
</g>
<!-- CALL_VcftoolsApplyFilters -->
<g id="node3" class="node"><title>CALL_VcftoolsApplyFilters</title>
<ellipse fill="none" stroke="black" cx="100.741" cy="-106" rx="100.983" ry="18"/>
<text text-anchor="middle" x="100.741" y="-102.3" font-family="Times,serif" font-size="14.00">call VcftoolsApplyFilters</text>
</g>
<!-- CALL_TabixVcf&#45;&gt;CALL_VcftoolsApplyFilters -->
<g id="edge4" class="edge"><title>CALL_TabixVcf&#45;&gt;CALL_VcftoolsApplyFilters</title>
<path fill="none" stroke="black" d="M100.741,-159.697C100.741,-151.983 100.741,-142.712 100.741,-134.112"/>
<polygon fill="black" stroke="black" points="104.241,-134.104 100.741,-124.104 97.2412,-134.104 104.241,-134.104"/>
</g>
<!-- CALL_BamCounts -->
<g id="node4" class="node"><title>CALL_BamCounts</title>
<ellipse fill="none" stroke="black" cx="333.741" cy="-34" rx="67.6881" ry="18"/>
<text text-anchor="middle" x="333.741" y="-30.3" font-family="Times,serif" font-size="14.00">call BamCounts</text>
</g>
<!-- CALL_VcftoolsApplyFilters&#45;&gt;CALL_BamCounts -->
<g id="edge2" class="edge"><title>CALL_VcftoolsApplyFilters&#45;&gt;CALL_BamCounts</title>
<path fill="none" stroke="black" d="M149.87,-90.2403C188.272,-78.7032 241.554,-62.6955 280.88,-50.8811"/>
<polygon fill="black" stroke="black" points="281.989,-54.2023 290.559,-47.973 279.975,-47.4983 281.989,-54.2023"/>
</g>
<!-- SCATTER_0_VARIABLE_alignment -->
<g id="node5" class="node"><title>SCATTER_0_VARIABLE_alignment</title>
<polygon fill="none" stroke="black" points="541.951,-106 461.346,-124 300.136,-124 219.531,-106 300.136,-88 461.346,-88 541.951,-106"/>
<text text-anchor="middle" x="380.741" y="-102.3" font-family="Times,serif" font-size="14.00">scatter over Alignment as alignment</text>
</g>
<!-- SCATTER_0_VARIABLE_alignment&#45;&gt;CALL_BamCounts -->
<g id="edge3" class="edge"><title>SCATTER_0_VARIABLE_alignment&#45;&gt;CALL_BamCounts</title>
<path fill="none" stroke="black" d="M369.123,-87.6966C363.602,-79.4741 356.894,-69.4832 350.809,-60.4207"/>
<polygon fill="black" stroke="black" points="353.706,-58.4555 345.225,-52.1043 347.894,-62.3576 353.706,-58.4555"/>
</g>
</g>
</svg>
