<?xml version="1.0" encoding="UTF-8" standalone="no"?>
<!DOCTYPE svg PUBLIC "-//W3C//DTD SVG 1.1//EN"
 "http://www.w3.org/Graphics/SVG/1.1/DTD/svg11.dtd">
<!-- Generated by graphviz version 2.38.0 (20140413.2041)
 -->
<!-- Title: GatkGenotyping Pages: 1 -->
<svg width="642pt" height="436pt"
 viewBox="0.00 0.00 642.00 436.00" xmlns="http://www.w3.org/2000/svg" xmlns:xlink="http://www.w3.org/1999/xlink">
<g id="graph0" class="graph" transform="scale(1 1) rotate(0) translate(4 432)">
<title>GatkGenotyping</title>
<polygon fill="white" stroke="none" points="-4,4 -4,-432 638,-432 638,4 -4,4"/>
<g id="clust1" class="cluster"><title>cluster_0</title>
<polygon fill="white" stroke="black" points="288,-296 288,-420 626,-420 626,-296 288,-296"/>
</g>
<g id="clust2" class="cluster"><title>cluster_1</title>
<polygon fill="white" stroke="black" points="8,-8 8,-132 346,-132 346,-8 8,-8"/>
</g>
<!-- CALL_GenotypeGVCFs -->
<g id="node1" class="node"><title>CALL_GenotypeGVCFs</title>
<ellipse fill="none" stroke="black" cx="457" cy="-178" rx="87.1846" ry="18"/>
<text text-anchor="middle" x="457" y="-174.3" font-family="Times,serif" font-size="14.00">call GenotypeGVCFs</text>
</g>
<!-- CALL_VcftoolsApplyFilters -->
<g id="node2" class="node"><title>CALL_VcftoolsApplyFilters</title>
<ellipse fill="none" stroke="black" cx="457" cy="-106" rx="100.983" ry="18"/>
<text text-anchor="middle" x="457" y="-102.3" font-family="Times,serif" font-size="14.00">call VcftoolsApplyFilters</text>
</g>
<!-- CALL_GenotypeGVCFs&#45;&gt;CALL_VcftoolsApplyFilters -->
<g id="edge1" class="edge"><title>CALL_GenotypeGVCFs&#45;&gt;CALL_VcftoolsApplyFilters</title>
<path fill="none" stroke="black" d="M457,-159.697C457,-151.983 457,-142.712 457,-134.112"/>
<polygon fill="black" stroke="black" points="460.5,-134.104 457,-124.104 453.5,-134.104 460.5,-134.104"/>
</g>
<!-- CALL_BamCounts -->
<g id="node6" class="node"><title>CALL_BamCounts</title>
<ellipse fill="none" stroke="black" cx="223" cy="-34" rx="67.6881" ry="18"/>
<text text-anchor="middle" x="223" y="-30.3" font-family="Times,serif" font-size="14.00">call BamCounts</text>
</g>
<!-- CALL_VcftoolsApplyFilters&#45;&gt;CALL_BamCounts -->
<g id="edge5" class="edge"><title>CALL_VcftoolsApplyFilters&#45;&gt;CALL_BamCounts</title>
<path fill="none" stroke="black" d="M407.661,-90.2403C369.094,-78.7032 315.582,-62.6955 276.088,-50.8811"/>
<polygon fill="black" stroke="black" points="276.951,-47.4859 266.367,-47.973 274.944,-54.1922 276.951,-47.4859"/>
</g>
<!-- CALL_HaplotypeCallerERC -->
<g id="node3" class="node"><title>CALL_HaplotypeCallerERC</title>
<ellipse fill="none" stroke="black" cx="457" cy="-322" rx="100.983" ry="18"/>
<text text-anchor="middle" x="457" y="-318.3" font-family="Times,serif" font-size="14.00">call HaplotypeCallerERC</text>
</g>
<!-- CALL_CreateGatkDatabase -->
<g id="node4" class="node"><title>CALL_CreateGatkDatabase</title>
<ellipse fill="none" stroke="black" cx="457" cy="-250" rx="98.2828" ry="18"/>
<text text-anchor="middle" x="457" y="-246.3" font-family="Times,serif" font-size="14.00">call CreateGatkDatabase</text>
</g>
<!-- CALL_HaplotypeCallerERC&#45;&gt;CALL_CreateGatkDatabase -->
<g id="edge2" class="edge"><title>CALL_HaplotypeCallerERC&#45;&gt;CALL_CreateGatkDatabase</title>
<path fill="none" stroke="black" d="M457,-303.697C457,-295.983 457,-286.712 457,-278.112"/>
<polygon fill="black" stroke="black" points="460.5,-278.104 457,-268.104 453.5,-278.104 460.5,-278.104"/>
</g>
<!-- CALL_CreateGatkDatabase&#45;&gt;CALL_GenotypeGVCFs -->
<g id="edge4" class="edge"><title>CALL_CreateGatkDatabase&#45;&gt;CALL_GenotypeGVCFs</title>
<path fill="none" stroke="black" d="M457,-231.697C457,-223.983 457,-214.712 457,-206.112"/>
<polygon fill="black" stroke="black" points="460.5,-206.104 457,-196.104 453.5,-206.104 460.5,-206.104"/>
</g>
<!-- SCATTER_0_VARIABLE_alignment -->
<g id="node5" class="node"><title>SCATTER_0_VARIABLE_alignment</title>
<polygon fill="none" stroke="black" points="618.21,-394 537.605,-412 376.395,-412 295.79,-394 376.395,-376 537.605,-376 618.21,-394"/>
<text text-anchor="middle" x="457" y="-390.3" font-family="Times,serif" font-size="14.00">scatter over Alignment as alignment</text>
</g>
<!-- SCATTER_0_VARIABLE_alignment&#45;&gt;CALL_HaplotypeCallerERC -->
<g id="edge3" class="edge"><title>SCATTER_0_VARIABLE_alignment&#45;&gt;CALL_HaplotypeCallerERC</title>
<path fill="none" stroke="black" d="M457,-375.697C457,-367.983 457,-358.712 457,-350.112"/>
<polygon fill="black" stroke="black" points="460.5,-350.104 457,-340.104 453.5,-350.104 460.5,-350.104"/>
</g>
<!-- SCATTER_1_VARIABLE_alignment -->
<g id="node7" class="node"><title>SCATTER_1_VARIABLE_alignment</title>
<polygon fill="none" stroke="black" points="338.21,-106 257.605,-124 96.3949,-124 15.7897,-106 96.3949,-88 257.605,-88 338.21,-106"/>
<text text-anchor="middle" x="177" y="-102.3" font-family="Times,serif" font-size="14.00">scatter over Alignment as alignment</text>
</g>
<!-- SCATTER_1_VARIABLE_alignment&#45;&gt;CALL_BamCounts -->
<g id="edge6" class="edge"><title>SCATTER_1_VARIABLE_alignment&#45;&gt;CALL_BamCounts</title>
<path fill="none" stroke="black" d="M188.371,-87.6966C193.718,-79.5589 200.204,-69.689 206.111,-60.7013"/>
<polygon fill="black" stroke="black" points="209.193,-62.3835 211.76,-52.1043 203.343,-58.5393 209.193,-62.3835"/>
</g>
</g>
</svg>
