<?xml version="1.0" encoding="UTF-8" standalone="no"?>
<!DOCTYPE svg PUBLIC "-//W3C//DTD SVG 1.1//EN"
 "http://www.w3.org/Graphics/SVG/1.1/DTD/svg11.dtd">
<!-- Generated by graphviz version 2.38.0 (20140413.2041)
 -->
<!-- Title: GusmapMaps Pages: 1 -->
<svg width="358pt" height="148pt"
 viewBox="0.00 0.00 358.00 148.00" xmlns="http://www.w3.org/2000/svg" xmlns:xlink="http://www.w3.org/1999/xlink">
<g id="graph0" class="graph" transform="scale(1 1) rotate(0) translate(4 144)">
<title>GusmapMaps</title>
<polygon fill="white" stroke="none" points="-4,4 -4,-144 354,-144 354,4 -4,4"/>
<g id="clust1" class="cluster"><title>cluster_0</title>
<polygon fill="white" stroke="black" points="8,-8 8,-132 342,-132 342,-8 8,-8"/>
</g>
<!-- SCATTER_0_VARIABLE_vcf -->
<g id="node1" class="node"><title>SCATTER_0_VARIABLE_vcf</title>
<polygon fill="none" stroke="black" points="334.207,-106 254.604,-124 95.3963,-124 15.7927,-106 95.3963,-88 254.604,-88 334.207,-106"/>
<text text-anchor="middle" x="175" y="-102.3" font-family="Times,serif" font-size="14.00">scatter over Pair[String, File] as vcf</text>
</g>
<!-- CALL_GusmapReport -->
<g id="node2" class="node"><title>CALL_GusmapReport</title>
<ellipse fill="none" stroke="black" cx="175" cy="-34" rx="79.0865" ry="18"/>
<text text-anchor="middle" x="175" y="-30.3" font-family="Times,serif" font-size="14.00">call GusmapReport</text>
</g>
<!-- SCATTER_0_VARIABLE_vcf&#45;&gt;CALL_GusmapReport -->
<g id="edge1" class="edge"><title>SCATTER_0_VARIABLE_vcf&#45;&gt;CALL_GusmapReport</title>
<path fill="none" stroke="black" d="M175,-87.6966C175,-79.9827 175,-70.7125 175,-62.1124"/>
<polygon fill="black" stroke="black" points="178.5,-62.1043 175,-52.1043 171.5,-62.1044 178.5,-62.1043"/>
</g>
</g>
</svg>
