<?xml version="1.0" encoding="UTF-8" standalone="no"?>
<!DOCTYPE svg PUBLIC "-//W3C//DTD SVG 1.1//EN"
 "http://www.w3.org/Graphics/SVG/1.1/DTD/svg11.dtd">
<!-- Generated by graphviz version 2.38.0 (20140413.2041)
 -->
<!-- Title: GusmapMaps Pages: 1 -->
<svg width="358pt" height="220pt"
 viewBox="0.00 0.00 358.00 220.00" xmlns="http://www.w3.org/2000/svg" xmlns:xlink="http://www.w3.org/1999/xlink">
<g id="graph0" class="graph" transform="scale(1 1) rotate(0) translate(4 216)">
<title>GusmapMaps</title>
<polygon fill="white" stroke="none" points="-4,4 -4,-216 354,-216 354,4 -4,4"/>
<g id="clust1" class="cluster"><title>cluster_0</title>
<polygon fill="white" stroke="black" points="8,-8 8,-204 342,-204 342,-8 8,-8"/>
</g>
<!-- SCATTER_0_VARIABLE_vcf -->
<g id="node1" class="node"><title>SCATTER_0_VARIABLE_vcf</title>
<polygon fill="none" stroke="black" points="334.207,-178 254.604,-196 95.3963,-196 15.7927,-178 95.3963,-160 254.604,-160 334.207,-178"/>
<text text-anchor="middle" x="175" y="-174.3" font-family="Times,serif" font-size="14.00">scatter over Pair[String, File] as vcf</text>
</g>
<!-- CALL_SelectChrVCF -->
<g id="node2" class="node"><title>CALL_SelectChrVCF</title>
<ellipse fill="none" stroke="black" cx="94" cy="-106" rx="77.1866" ry="18"/>
<text text-anchor="middle" x="94" y="-102.3" font-family="Times,serif" font-size="14.00">call SelectChrVCF</text>
</g>
<!-- SCATTER_0_VARIABLE_vcf&#45;&gt;CALL_SelectChrVCF -->
<g id="edge1" class="edge"><title>SCATTER_0_VARIABLE_vcf&#45;&gt;CALL_SelectChrVCF</title>
<path fill="none" stroke="black" d="M154.978,-159.697C144.724,-150.835 132.093,-139.92 120.992,-130.326"/>
<polygon fill="black" stroke="black" points="123.089,-127.513 113.234,-123.622 118.512,-132.809 123.089,-127.513"/>
</g>
<!-- CALL_GusmapReport -->
<g id="node3" class="node"><title>CALL_GusmapReport</title>
<ellipse fill="none" stroke="black" cx="142" cy="-34" rx="79.0865" ry="18"/>
<text text-anchor="middle" x="142" y="-30.3" font-family="Times,serif" font-size="14.00">call GusmapReport</text>
</g>
<!-- SCATTER_0_VARIABLE_vcf&#45;&gt;CALL_GusmapReport -->
<g id="edge2" class="edge"><title>SCATTER_0_VARIABLE_vcf&#45;&gt;CALL_GusmapReport</title>
<path fill="none" stroke="black" d="M179.557,-159.805C183.582,-141.53 187.72,-112.015 180,-88 176.811,-78.0801 171.004,-68.4429 164.873,-60.1672"/>
<polygon fill="black" stroke="black" points="167.418,-57.7434 158.463,-52.0811 161.933,-62.0919 167.418,-57.7434"/>
</g>
<!-- CALL_SelectChrVCF&#45;&gt;CALL_GusmapReport -->
<g id="edge3" class="edge"><title>CALL_SelectChrVCF&#45;&gt;CALL_GusmapReport</title>
<path fill="none" stroke="black" d="M105.619,-88.055C111.254,-79.8373 118.143,-69.7911 124.405,-60.6599"/>
<polygon fill="black" stroke="black" points="127.385,-62.502 130.154,-52.2753 121.612,-58.5432 127.385,-62.502"/>
</g>
</g>
</svg>
