<?xml version="1.0" encoding="UTF-8" standalone="no"?>
<!DOCTYPE svg PUBLIC "-//W3C//DTD SVG 1.1//EN"
 "http://www.w3.org/Graphics/SVG/1.1/DTD/svg11.dtd">
<!-- Generated by graphviz version 2.38.0 (20140413.2041)
 -->
<!-- Title: PolyradMaps Pages: 1 -->
<svg width="402pt" height="348pt"
 viewBox="0.00 0.00 402.00 348.00" xmlns="http://www.w3.org/2000/svg" xmlns:xlink="http://www.w3.org/1999/xlink">
<g id="graph0" class="graph" transform="scale(1 1) rotate(0) translate(4 344)">
<title>PolyradMaps</title>
<polygon fill="white" stroke="none" points="-4,4 -4,-344 398,-344 398,4 -4,4"/>
<g id="clust1" class="cluster"><title>cluster_0</title>
<polygon fill="white" stroke="black" points="8,-8 8,-204 386,-204 386,-8 8,-8"/>
</g>
<!-- CALL_GlobalError -->
<g id="node1" class="node"><title>CALL_GlobalError</title>
<ellipse fill="none" stroke="black" cx="191" cy="-250" rx="68.4888" ry="18"/>
<text text-anchor="middle" x="191" y="-246.3" font-family="Times,serif" font-size="14.00">call GlobalError</text>
</g>
<!-- SCATTER_0_VARIABLE_objects -->
<g id="node2" class="node"><title>SCATTER_0_VARIABLE_objects</title>
<polygon fill="none" stroke="black" points="365.728,-178 278.364,-196 103.636,-196 16.2721,-178 103.636,-160 278.364,-160 365.728,-178"/>
<text text-anchor="middle" x="191" y="-174.3" font-family="Times,serif" font-size="14.00">scatter over Pair[String, File] as objects</text>
</g>
<!-- CALL_GlobalError&#45;&gt;SCATTER_0_VARIABLE_objects -->
<g id="edge1" class="edge"><title>CALL_GlobalError&#45;&gt;SCATTER_0_VARIABLE_objects</title>
<path fill="none" stroke="black" d="M191,-231.697C191,-223.983 191,-214.712 191,-206.112"/>
<polygon fill="black" stroke="black" points="194.5,-206.104 191,-196.104 187.5,-206.104 194.5,-206.104"/>
</g>
<!-- CALL_CheckDepths -->
<g id="node3" class="node"><title>CALL_CheckDepths</title>
<ellipse fill="none" stroke="black" cx="305" cy="-106" rx="73.387" ry="18"/>
<text text-anchor="middle" x="305" y="-102.3" font-family="Times,serif" font-size="14.00">call CheckDepths</text>
</g>
<!-- SCATTER_0_VARIABLE_objects&#45;&gt;CALL_CheckDepths -->
<g id="edge2" class="edge"><title>SCATTER_0_VARIABLE_objects&#45;&gt;CALL_CheckDepths</title>
<path fill="none" stroke="black" d="M218.888,-159.876C234.349,-150.382 253.718,-138.489 270.168,-128.388"/>
<polygon fill="black" stroke="black" points="272.273,-131.203 278.963,-122.987 268.61,-125.237 272.273,-131.203"/>
</g>
<!-- CALL_MapsReportEmp -->
<g id="node4" class="node"><title>CALL_MapsReportEmp</title>
<ellipse fill="none" stroke="black" cx="114" cy="-34" rx="87.1846" ry="18"/>
<text text-anchor="middle" x="114" y="-30.3" font-family="Times,serif" font-size="14.00">call MapsReportEmp</text>
</g>
<!-- SCATTER_0_VARIABLE_objects&#45;&gt;CALL_MapsReportEmp -->
<g id="edge3" class="edge"><title>SCATTER_0_VARIABLE_objects&#45;&gt;CALL_MapsReportEmp</title>
<path fill="none" stroke="black" d="M85.01,-163.737C62.3832,-155.789 41.0855,-143.355 27,-124 17.5852,-111.063 19.1637,-101.95 27,-88 35.1058,-73.5705 48.9105,-62.6082 63.1647,-54.5065"/>
<polygon fill="black" stroke="black" points="64.8342,-57.5831 72.051,-49.8263 61.5722,-51.3895 64.8342,-57.5831"/>
</g>
<!-- CALL_FiltersReportEmp -->
<g id="node6" class="node"><title>CALL_FiltersReportEmp</title>
<ellipse fill="none" stroke="black" cx="125" cy="-106" rx="89.0842" ry="18"/>
<text text-anchor="middle" x="125" y="-102.3" font-family="Times,serif" font-size="14.00">call FiltersReportEmp</text>
</g>
<!-- SCATTER_0_VARIABLE_objects&#45;&gt;CALL_FiltersReportEmp -->
<g id="edge5" class="edge"><title>SCATTER_0_VARIABLE_objects&#45;&gt;CALL_FiltersReportEmp</title>
<path fill="none" stroke="black" d="M174.685,-159.697C166.693,-151.22 156.928,-140.864 148.178,-131.583"/>
<polygon fill="black" stroke="black" points="150.534,-128.979 141.127,-124.104 145.441,-133.781 150.534,-128.979"/>
</g>
<!-- CALL_PolyradProbs -->
<g id="node5" class="node"><title>CALL_PolyradProbs</title>
<ellipse fill="none" stroke="black" cx="287" cy="-322" rx="73.387" ry="18"/>
<text text-anchor="middle" x="287" y="-318.3" font-family="Times,serif" font-size="14.00">call PolyradProbs</text>
</g>
<!-- CALL_PolyradProbs&#45;&gt;CALL_GlobalError -->
<g id="edge7" class="edge"><title>CALL_PolyradProbs&#45;&gt;CALL_GlobalError</title>
<path fill="none" stroke="black" d="M264.734,-304.765C251.891,-295.4 235.558,-283.49 221.53,-273.261"/>
<polygon fill="black" stroke="black" points="223.287,-270.211 213.145,-267.147 219.163,-275.867 223.287,-270.211"/>
</g>
<!-- CALL_PolyradProbs&#45;&gt;SCATTER_0_VARIABLE_objects -->
<g id="edge4" class="edge"><title>CALL_PolyradProbs&#45;&gt;SCATTER_0_VARIABLE_objects</title>
<path fill="none" stroke="black" d="M287.01,-303.82C286.236,-284.754 282.573,-253.806 268,-232 259.873,-219.84 247.925,-209.673 235.853,-201.602"/>
<polygon fill="black" stroke="black" points="237.424,-198.456 227.094,-196.098 233.699,-204.383 237.424,-198.456"/>
</g>
<!-- CALL_PolyradProbs&#45;&gt;CALL_CheckDepths -->
<g id="edge8" class="edge"><title>CALL_PolyradProbs&#45;&gt;CALL_CheckDepths</title>
<path fill="none" stroke="black" d="M305.107,-304.503C326.59,-283.578 361.228,-245.223 375,-204 381.197,-185.452 383.706,-177.511 375,-160 368.502,-146.93 357.071,-136.222 345.307,-127.938"/>
<polygon fill="black" stroke="black" points="347.031,-124.883 336.747,-122.335 343.197,-130.74 347.031,-124.883"/>
</g>
<!-- CALL_FiltersReportEmp&#45;&gt;CALL_MapsReportEmp -->
<g id="edge6" class="edge"><title>CALL_FiltersReportEmp&#45;&gt;CALL_MapsReportEmp</title>
<path fill="none" stroke="black" d="M122.281,-87.6966C121.069,-79.9827 119.612,-70.7125 118.261,-62.1124"/>
<polygon fill="black" stroke="black" points="121.698,-61.4397 116.688,-52.1043 114.783,-62.5265 121.698,-61.4397"/>
</g>
</g>
</svg>
