<?xml version="1.0" encoding="UTF-8" standalone="no"?>
<!DOCTYPE svg PUBLIC "-//W3C//DTD SVG 1.1//EN"
 "http://www.w3.org/Graphics/SVG/1.1/DTD/svg11.dtd">
<!-- Generated by graphviz version 2.38.0 (20140413.2041)
 -->
<!-- Title: PreprocessingReads Pages: 1 -->
<svg width="300pt" height="260pt"
 viewBox="0.00 0.00 300.00 260.00" xmlns="http://www.w3.org/2000/svg" xmlns:xlink="http://www.w3.org/1999/xlink">
<g id="graph0" class="graph" transform="scale(1 1) rotate(0) translate(4 256)">
<title>PreprocessingReads</title>
<polygon fill="white" stroke="none" points="-4,4 -4,-256 296,-256 296,4 -4,4"/>
<g id="clust1" class="cluster"><title>cluster_0</title>
<polygon fill="white" stroke="black" points="8,-64 8,-188 284,-188 284,-64 8,-64"/>
</g>
<!-- CALL_RemoveAdapt -->
<g id="node1" class="node"><title>CALL_RemoveAdapt</title>
<ellipse fill="none" stroke="black" cx="146" cy="-90" rx="77.1866" ry="18"/>
<text text-anchor="middle" x="146" y="-86.3" font-family="Times,serif" font-size="14.00">call RemoveAdapt</text>
</g>
<!-- CALL_TarFiles -->
<g id="node2" class="node"><title>CALL_TarFiles</title>
<ellipse fill="none" stroke="black" cx="146" cy="-18" rx="55.4913" ry="18"/>
<text text-anchor="middle" x="146" y="-14.3" font-family="Times,serif" font-size="14.00">call TarFiles</text>
</g>
<!-- CALL_RemoveAdapt&#45;&gt;CALL_TarFiles -->
<g id="edge1" class="edge"><title>CALL_RemoveAdapt&#45;&gt;CALL_TarFiles</title>
<path fill="none" stroke="black" d="M146,-71.6966C146,-63.9827 146,-54.7125 146,-46.1124"/>
<polygon fill="black" stroke="black" points="149.5,-46.1043 146,-36.1043 142.5,-46.1044 149.5,-46.1043"/>
</g>
<!-- CALL_ProcessRadTags -->
<g id="node3" class="node"><title>CALL_ProcessRadTags</title>
<ellipse fill="none" stroke="black" cx="146" cy="-234" rx="83.6854" ry="18"/>
<text text-anchor="middle" x="146" y="-230.3" font-family="Times,serif" font-size="14.00">call ProcessRadTags</text>
</g>
<!-- SCATTER_0_VARIABLE_sequence -->
<g id="node4" class="node"><title>SCATTER_0_VARIABLE_sequence</title>
<polygon fill="none" stroke="black" points="275.669,-162 210.835,-180 81.1653,-180 16.3307,-162 81.1653,-144 210.835,-144 275.669,-162"/>
<text text-anchor="middle" x="146" y="-158.3" font-family="Times,serif" font-size="14.00">scatter over File as sequence</text>
</g>
<!-- CALL_ProcessRadTags&#45;&gt;SCATTER_0_VARIABLE_sequence -->
<g id="edge2" class="edge"><title>CALL_ProcessRadTags&#45;&gt;SCATTER_0_VARIABLE_sequence</title>
<path fill="none" stroke="black" d="M146,-215.697C146,-207.983 146,-198.712 146,-190.112"/>
<polygon fill="black" stroke="black" points="149.5,-190.104 146,-180.104 142.5,-190.104 149.5,-190.104"/>
</g>
<!-- SCATTER_0_VARIABLE_sequence&#45;&gt;CALL_RemoveAdapt -->
<g id="edge3" class="edge"><title>SCATTER_0_VARIABLE_sequence&#45;&gt;CALL_RemoveAdapt</title>
<path fill="none" stroke="black" d="M146,-143.697C146,-135.983 146,-126.712 146,-118.112"/>
<polygon fill="black" stroke="black" points="149.5,-118.104 146,-108.104 142.5,-118.104 149.5,-118.104"/>
</g>
</g>
</svg>
