<?xml version="1.0" encoding="UTF-8" standalone="no"?>
<!DOCTYPE svg PUBLIC "-//W3C//DTD SVG 1.1//EN"
 "http://www.w3.org/Graphics/SVG/1.1/DTD/svg11.dtd">
<!-- Generated by graphviz version 2.38.0 (20140413.2041)
 -->
<!-- Title: reads_simu Pages: 1 -->
<svg width="1414pt" height="436pt"
 viewBox="0.00 0.00 1413.74 436.00" xmlns="http://www.w3.org/2000/svg" xmlns:xlink="http://www.w3.org/1999/xlink">
<g id="graph0" class="graph" transform="scale(1 1) rotate(0) translate(4 432)">
<title>reads_simu</title>
<polygon fill="white" stroke="none" points="-4,4 -4,-432 1409.74,-432 1409.74,4 -4,4"/>
<g id="clust1" class="cluster"><title>cluster_0</title>
<polygon fill="white" stroke="black" points="210.67,-64 210.67,-276 944.67,-276 944.67,-64 210.67,-64"/>
</g>
<!-- SCATTER_0_VARIABLE_vcf -->
<g id="node1" class="node"><title>SCATTER_0_VARIABLE_vcf</title>
<polygon fill="none" stroke="black" points="839.877,-250 760.273,-268 601.066,-268 521.462,-250 601.066,-232 760.273,-232 839.877,-250"/>
<text text-anchor="middle" x="680.67" y="-246.3" font-family="Times,serif" font-size="14.00">scatter over Pair[String, File] as vcf</text>
</g>
<!-- CALL_ScatterAt130_13 -->
<g id="node2" class="node"><title>CALL_ScatterAt130_13</title>
<ellipse fill="none" stroke="black" cx="477.67" cy="-94" rx="85.2787" ry="18"/>
<ellipse fill="none" stroke="black" cx="477.67" cy="-94" rx="89.2851" ry="22"/>
<text text-anchor="middle" x="477.67" y="-90.3" font-family="Times,serif" font-size="14.00">call ScatterAt130_13</text>
</g>
<!-- SCATTER_0_VARIABLE_vcf&#45;&gt;CALL_ScatterAt130_13 -->
<g id="edge1" class="edge"><title>SCATTER_0_VARIABLE_vcf&#45;&gt;CALL_ScatterAt130_13</title>
<path fill="none" stroke="black" d="M672.323,-231.854C660.046,-207.209 637.123,-163.467 623.67,-152 602.736,-134.157 575.57,-121.518 550.358,-112.755"/>
<polygon fill="black" stroke="black" points="551.401,-109.413 540.808,-109.583 549.195,-116.057 551.401,-109.413"/>
</g>
<!-- CALL_BamDepths2Vcf -->
<g id="node6" class="node"><title>CALL_BamDepths2Vcf</title>
<ellipse fill="none" stroke="black" cx="757.67" cy="-174" rx="85.2851" ry="18"/>
<text text-anchor="middle" x="757.67" y="-170.3" font-family="Times,serif" font-size="14.00">call BamDepths2Vcf</text>
</g>
<!-- SCATTER_0_VARIABLE_vcf&#45;&gt;CALL_BamDepths2Vcf -->
<g id="edge25" class="edge"><title>SCATTER_0_VARIABLE_vcf&#45;&gt;CALL_BamDepths2Vcf</title>
<path fill="none" stroke="black" d="M698.528,-231.837C708.708,-222.054 721.62,-209.645 732.781,-198.919"/>
<polygon fill="black" stroke="black" points="735.388,-201.268 740.173,-191.815 730.538,-196.221 735.388,-201.268"/>
</g>
<!-- CALL_DefaultMaps -->
<g id="node7" class="node"><title>CALL_DefaultMaps</title>
<ellipse fill="none" stroke="black" cx="294.67" cy="-94" rx="72.2799" ry="18"/>
<ellipse fill="none" stroke="black" cx="294.67" cy="-94" rx="76.2875" ry="22"/>
<text text-anchor="middle" x="294.67" y="-90.3" font-family="Times,serif" font-size="14.00">call DefaultMaps</text>
</g>
<!-- SCATTER_0_VARIABLE_vcf&#45;&gt;CALL_DefaultMaps -->
<g id="edge21" class="edge"><title>SCATTER_0_VARIABLE_vcf&#45;&gt;CALL_DefaultMaps</title>
<path fill="none" stroke="black" d="M593.838,-233.628C553.937,-225.049 506.511,-212.674 465.67,-196 416.294,-175.842 364.158,-143.172 330.623,-120.468"/>
<polygon fill="black" stroke="black" points="332.324,-117.391 322.093,-114.636 328.373,-123.169 332.324,-117.391"/>
</g>
<!-- CALL_GusmapMaps -->
<g id="node10" class="node"><title>CALL_GusmapMaps</title>
<ellipse fill="none" stroke="black" cx="664.67" cy="-94" rx="75.2921" ry="18"/>
<ellipse fill="none" stroke="black" cx="664.67" cy="-94" rx="79.2868" ry="22"/>
<text text-anchor="middle" x="664.67" y="-90.3" font-family="Times,serif" font-size="14.00">call GusmapMaps</text>
</g>
<!-- SCATTER_0_VARIABLE_vcf&#45;&gt;CALL_GusmapMaps -->
<g id="edge7" class="edge"><title>SCATTER_0_VARIABLE_vcf&#45;&gt;CALL_GusmapMaps</title>
<path fill="none" stroke="black" d="M673.603,-231.665C669.831,-221.47 665.581,-208.22 663.67,-196 660.039,-172.797 660.481,-146.228 661.728,-126.166"/>
<polygon fill="black" stroke="black" points="665.23,-126.263 662.459,-116.037 658.248,-125.759 665.23,-126.263"/>
</g>
<!-- CALL_SNPCallerMaps -->
<g id="node11" class="node"><title>CALL_SNPCallerMaps</title>
<ellipse fill="none" stroke="black" cx="849.67" cy="-94" rx="83.3768" ry="18"/>
<ellipse fill="none" stroke="black" cx="849.67" cy="-94" rx="87.3857" ry="22"/>
<text text-anchor="middle" x="849.67" y="-90.3" font-family="Times,serif" font-size="14.00">call SNPCallerMaps</text>
</g>
<!-- SCATTER_0_VARIABLE_vcf&#45;&gt;CALL_SNPCallerMaps -->
<g id="edge31" class="edge"><title>SCATTER_0_VARIABLE_vcf&#45;&gt;CALL_SNPCallerMaps</title>
<path fill="none" stroke="black" d="M787.098,-237.976C812.162,-230.101 836.088,-217.142 851.67,-196 866.311,-176.134 864.252,-147.591 859.429,-125.913"/>
<polygon fill="black" stroke="black" points="862.817,-125.037 856.984,-116.192 856.029,-126.744 862.817,-125.037"/>
</g>
<!-- CALL_vcf2onemap -->
<g id="node12" class="node"><title>CALL_vcf2onemap</title>
<ellipse fill="none" stroke="black" cx="544.67" cy="-174" rx="69.5877" ry="18"/>
<text text-anchor="middle" x="544.67" y="-170.3" font-family="Times,serif" font-size="14.00">call vcf2onemap</text>
</g>
<!-- SCATTER_0_VARIABLE_vcf&#45;&gt;CALL_vcf2onemap -->
<g id="edge13" class="edge"><title>SCATTER_0_VARIABLE_vcf&#45;&gt;CALL_vcf2onemap</title>
<path fill="none" stroke="black" d="M649.127,-231.837C629.167,-220.977 603.259,-206.88 582.238,-195.442"/>
<polygon fill="black" stroke="black" points="583.719,-192.263 573.262,-190.558 580.374,-198.412 583.719,-192.263"/>
</g>
<!-- CALL_JointReports -->
<g id="node8" class="node"><title>CALL_JointReports</title>
<ellipse fill="none" stroke="black" cx="756.67" cy="-18" rx="70.3881" ry="18"/>
<text text-anchor="middle" x="756.67" y="-14.3" font-family="Times,serif" font-size="14.00">call JointReports</text>
</g>
<!-- CALL_ScatterAt130_13&#45;&gt;CALL_JointReports -->
<g id="edge12" class="edge"><title>CALL_ScatterAt130_13&#45;&gt;CALL_JointReports</title>
<path fill="none" stroke="black" d="M532.284,-76.5776C546.687,-72.3631 562.237,-67.9163 576.67,-64 616.706,-53.1361 662.015,-41.8141 697.159,-33.2444"/>
<polygon fill="black" stroke="black" points="698.364,-36.5534 707.255,-30.7902 696.711,-29.7516 698.364,-36.5534"/>
</g>
<!-- CALL_SimulatedMap -->
<g id="node3" class="node"><title>CALL_SimulatedMap</title>
<ellipse fill="none" stroke="black" cx="119.67" cy="-174" rx="78.7794" ry="18"/>
<ellipse fill="none" stroke="black" cx="119.67" cy="-174" rx="82.7863" ry="22"/>
<text text-anchor="middle" x="119.67" y="-170.3" font-family="Times,serif" font-size="14.00">call SimulatedMap</text>
</g>
<!-- CALL_SimulatedMap&#45;&gt;CALL_ScatterAt130_13 -->
<g id="edge2" class="edge"><title>CALL_SimulatedMap&#45;&gt;CALL_ScatterAt130_13</title>
<path fill="none" stroke="black" d="M178.577,-158.514C187.962,-156.283 197.574,-154.044 206.67,-152 283.295,-134.784 302.828,-132.228 379.67,-116 387.009,-114.45 394.655,-112.827 402.297,-111.198"/>
<polygon fill="black" stroke="black" points="403.265,-114.571 412.315,-109.061 401.805,-107.725 403.265,-114.571"/>
</g>
<!-- CALL_SimulatedMap&#45;&gt;CALL_DefaultMaps -->
<g id="edge8" class="edge"><title>CALL_SimulatedMap&#45;&gt;CALL_DefaultMaps</title>
<path fill="none" stroke="black" d="M160.699,-154.712C186.093,-143.394 218.843,-128.797 245.606,-116.868"/>
<polygon fill="black" stroke="black" points="247.092,-120.038 254.801,-112.77 244.242,-113.644 247.092,-120.038"/>
</g>
<!-- CALL_SimulatedMap&#45;&gt;CALL_GusmapMaps -->
<g id="edge30" class="edge"><title>CALL_SimulatedMap&#45;&gt;CALL_GusmapMaps</title>
<path fill="none" stroke="black" d="M176.997,-157.965C186.846,-155.726 197.017,-153.628 206.67,-152 369.154,-124.601 413.115,-142.982 575.67,-116 582.966,-114.789 590.553,-113.323 598.085,-111.736"/>
<polygon fill="black" stroke="black" points="598.901,-115.14 607.925,-109.59 597.409,-108.301 598.901,-115.14"/>
</g>
<!-- CALL_SimulatedMap&#45;&gt;CALL_SNPCallerMaps -->
<g id="edge14" class="edge"><title>CALL_SimulatedMap&#45;&gt;CALL_SNPCallerMaps</title>
<path fill="none" stroke="black" d="M176.487,-157.811C186.486,-155.561 196.839,-153.499 206.67,-152 447.083,-115.335 511.839,-149.821 752.67,-116 761.009,-114.829 769.7,-113.339 778.304,-111.696"/>
<polygon fill="black" stroke="black" points="779.21,-115.085 788.338,-109.706 777.848,-108.218 779.21,-115.085"/>
</g>
<!-- CALL_CreateAlignmentFromSimulation -->
<g id="node4" class="node"><title>CALL_CreateAlignmentFromSimulation</title>
<ellipse fill="none" stroke="black" cx="707.67" cy="-406" rx="145.672" ry="18"/>
<ellipse fill="none" stroke="black" cx="707.67" cy="-406" rx="149.674" ry="22"/>
<text text-anchor="middle" x="707.67" y="-402.3" font-family="Times,serif" font-size="14.00">call CreateAlignmentFromSimulation</text>
</g>
<!-- CALL_CreateAlignmentFromSimulation&#45;&gt;CALL_ScatterAt130_13 -->
<g id="edge18" class="edge"><title>CALL_CreateAlignmentFromSimulation&#45;&gt;CALL_ScatterAt130_13</title>
<path fill="none" stroke="black" d="M577.008,-395.286C464.655,-385.704 311.936,-369.399 254.67,-348 140.933,-305.5 84.8529,-303.109 27.6695,-196 -26.3223,-94.8687 189.876,-145.949 379.67,-116 387.823,-114.713 396.32,-113.183 404.752,-111.542"/>
<polygon fill="black" stroke="black" points="405.478,-114.966 414.598,-109.574 404.106,-108.102 405.478,-114.966"/>
</g>
<!-- CALL_CreateAlignmentFromSimulation&#45;&gt;CALL_SimulatedMap -->
<g id="edge17" class="edge"><title>CALL_CreateAlignmentFromSimulation&#45;&gt;CALL_SimulatedMap</title>
<path fill="none" stroke="black" d="M575.418,-395.618C468.083,-382.523 316.995,-351.152 206.67,-276 178.808,-257.021 154.486,-226.941 138.696,-204.536"/>
<polygon fill="black" stroke="black" points="141.42,-202.321 132.87,-196.064 135.652,-206.287 141.42,-202.321"/>
</g>
<!-- CALL_GatkGenotyping -->
<g id="node5" class="node"><title>CALL_GatkGenotyping</title>
<ellipse fill="none" stroke="black" cx="707.67" cy="-326" rx="84.4853" ry="18"/>
<ellipse fill="none" stroke="black" cx="707.67" cy="-326" rx="88.485" ry="22"/>
<text text-anchor="middle" x="707.67" y="-322.3" font-family="Times,serif" font-size="14.00">call GatkGenotyping</text>
</g>
<!-- CALL_CreateAlignmentFromSimulation&#45;&gt;CALL_GatkGenotyping -->
<g id="edge3" class="edge"><title>CALL_CreateAlignmentFromSimulation&#45;&gt;CALL_GatkGenotyping</title>
<path fill="none" stroke="black" d="M707.67,-383.686C707.67,-375.798 707.67,-366.684 707.67,-358.103"/>
<polygon fill="black" stroke="black" points="711.17,-358.018 707.67,-348.018 704.17,-358.018 711.17,-358.018"/>
</g>
<!-- CALL_CreateAlignmentFromSimulation&#45;&gt;CALL_DefaultMaps -->
<g id="edge11" class="edge"><title>CALL_CreateAlignmentFromSimulation&#45;&gt;CALL_DefaultMaps</title>
<path fill="none" stroke="black" d="M563.28,-400.248C419.156,-393.802 208.65,-379.274 133.67,-348 87.3467,-328.679 76.0186,-316.715 46.6695,-276 13.4515,-229.917 -20.2548,-196.006 15.6695,-152 40.0052,-122.19 137.919,-107.557 210.923,-100.666"/>
<polygon fill="black" stroke="black" points="211.407,-104.137 221.048,-99.7443 210.772,-97.1654 211.407,-104.137"/>
</g>
<!-- CALL_BamCounts4Onemap -->
<g id="node9" class="node"><title>CALL_BamCounts4Onemap</title>
<ellipse fill="none" stroke="black" cx="1055.67" cy="-250" rx="102.882" ry="18"/>
<text text-anchor="middle" x="1055.67" y="-246.3" font-family="Times,serif" font-size="14.00">call BamCounts4Onemap</text>
</g>
<!-- CALL_CreateAlignmentFromSimulation&#45;&gt;CALL_BamCounts4Onemap -->
<g id="edge6" class="edge"><title>CALL_CreateAlignmentFromSimulation&#45;&gt;CALL_BamCounts4Onemap</title>
<path fill="none" stroke="black" d="M843.892,-396.797C921.719,-389.237 1009.17,-374.908 1036.67,-348 1055.01,-330.055 1058.41,-299.979 1058.06,-278.066"/>
<polygon fill="black" stroke="black" points="1061.56,-277.897 1057.64,-268.054 1054.56,-278.192 1061.56,-277.897"/>
</g>
<!-- CALL_CreateAlignmentFromSimulation&#45;&gt;CALL_GusmapMaps -->
<g id="edge37" class="edge"><title>CALL_CreateAlignmentFromSimulation&#45;&gt;CALL_GusmapMaps</title>
<path fill="none" stroke="black" d="M660.921,-385.045C598.172,-354.967 491.57,-291.215 465.67,-196 460.537,-177.13 453.898,-167.616 465.67,-152 469.859,-146.442 541.879,-126.73 598.084,-112.035"/>
<polygon fill="black" stroke="black" points="599.225,-115.355 608.019,-109.446 597.46,-108.581 599.225,-115.355"/>
</g>
<!-- CALL_CreateAlignmentFromSimulation&#45;&gt;CALL_SNPCallerMaps -->
<g id="edge9" class="edge"><title>CALL_CreateAlignmentFromSimulation&#45;&gt;CALL_SNPCallerMaps</title>
<path fill="none" stroke="black" d="M850.449,-399.367C1029.5,-388.845 1320.72,-359.094 1383.67,-276 1498.68,-124.18 1130.39,-98.5823 947.021,-95.039"/>
<polygon fill="black" stroke="black" points="946.883,-91.5362 936.824,-94.861 946.761,-98.5351 946.883,-91.5362"/>
</g>
<!-- CALL_CalculateVcfMetrics -->
<g id="node13" class="node"><title>CALL_CalculateVcfMetrics</title>
<ellipse fill="none" stroke="black" cx="1275.67" cy="-250" rx="99.3824" ry="18"/>
<text text-anchor="middle" x="1275.67" y="-246.3" font-family="Times,serif" font-size="14.00">call CalculateVcfMetrics</text>
</g>
<!-- CALL_CreateAlignmentFromSimulation&#45;&gt;CALL_CalculateVcfMetrics -->
<g id="edge22" class="edge"><title>CALL_CreateAlignmentFromSimulation&#45;&gt;CALL_CalculateVcfMetrics</title>
<path fill="none" stroke="black" d="M829.584,-393.215C898.171,-384.617 984.805,-370.448 1059.67,-348 1124.28,-328.627 1194.81,-294.237 1237.12,-272.04"/>
<polygon fill="black" stroke="black" points="1239.02,-274.995 1246.22,-267.225 1235.75,-268.808 1239.02,-274.995"/>
</g>
<!-- CALL_FreebayesGenotyping -->
<g id="node14" class="node"><title>CALL_FreebayesGenotyping</title>
<ellipse fill="none" stroke="black" cx="920.67" cy="-326" rx="102.875" ry="18"/>
<ellipse fill="none" stroke="black" cx="920.67" cy="-326" rx="106.882" ry="22"/>
<text text-anchor="middle" x="920.67" y="-322.3" font-family="Times,serif" font-size="14.00">call FreebayesGenotyping</text>
</g>
<!-- CALL_CreateAlignmentFromSimulation&#45;&gt;CALL_FreebayesGenotyping -->
<g id="edge20" class="edge"><title>CALL_CreateAlignmentFromSimulation&#45;&gt;CALL_FreebayesGenotyping</title>
<path fill="none" stroke="black" d="M761.143,-385.418C791.408,-374.335 829.344,-360.443 860.627,-348.987"/>
<polygon fill="black" stroke="black" points="861.92,-352.241 870.107,-345.516 859.513,-345.668 861.92,-352.241"/>
</g>
<!-- CALL_GatkGenotyping&#45;&gt;SCATTER_0_VARIABLE_vcf -->
<g id="edge35" class="edge"><title>CALL_GatkGenotyping&#45;&gt;SCATTER_0_VARIABLE_vcf</title>
<path fill="none" stroke="black" d="M700.005,-303.993C697.046,-295.885 693.625,-286.508 690.49,-277.916"/>
<polygon fill="black" stroke="black" points="693.703,-276.509 686.987,-268.315 687.127,-278.909 693.703,-276.509"/>
</g>
<!-- CALL_GatkGenotyping&#45;&gt;CALL_BamCounts4Onemap -->
<g id="edge19" class="edge"><title>CALL_GatkGenotyping&#45;&gt;CALL_BamCounts4Onemap</title>
<path fill="none" stroke="black" d="M772.068,-310.858C782.941,-308.528 794.121,-306.167 804.67,-304 868.534,-290.879 884.914,-289.642 948.67,-276 961.379,-273.281 974.903,-270.238 987.907,-267.236"/>
<polygon fill="black" stroke="black" points="988.779,-270.627 997.728,-264.955 987.195,-263.809 988.779,-270.627"/>
</g>
<!-- CALL_GatkGenotyping&#45;&gt;CALL_CalculateVcfMetrics -->
<g id="edge33" class="edge"><title>CALL_GatkGenotyping&#45;&gt;CALL_CalculateVcfMetrics</title>
<path fill="none" stroke="black" d="M769.796,-310.238C781.339,-307.87 793.332,-305.657 804.67,-304 964.782,-280.604 1007.73,-300.538 1167.67,-276 1182.04,-273.795 1197.34,-270.713 1211.77,-267.465"/>
<polygon fill="black" stroke="black" points="1212.63,-270.857 1221.59,-265.198 1211.06,-264.036 1212.63,-270.857"/>
</g>
<!-- CALL_BamDepths2Vcf&#45;&gt;CALL_ScatterAt130_13 -->
<g id="edge4" class="edge"><title>CALL_BamDepths2Vcf&#45;&gt;CALL_ScatterAt130_13</title>
<path fill="none" stroke="black" d="M708.256,-159.235C662.776,-146.565 594.944,-127.669 544.613,-113.649"/>
<polygon fill="black" stroke="black" points="545.364,-110.225 534.792,-110.913 543.486,-116.968 545.364,-110.225"/>
</g>
<!-- CALL_BamDepths2Vcf&#45;&gt;CALL_GusmapMaps -->
<g id="edge32" class="edge"><title>CALL_BamDepths2Vcf&#45;&gt;CALL_GusmapMaps</title>
<path fill="none" stroke="black" d="M737.947,-156.458C725.912,-146.365 710.248,-133.227 696.493,-121.691"/>
<polygon fill="black" stroke="black" points="698.568,-118.863 688.657,-115.119 694.07,-124.226 698.568,-118.863"/>
</g>
<!-- CALL_DefaultMaps&#45;&gt;CALL_JointReports -->
<g id="edge5" class="edge"><title>CALL_DefaultMaps&#45;&gt;CALL_JointReports</title>
<path fill="none" stroke="black" d="M338.718,-76.0099C351.742,-71.5232 366.139,-67.0798 379.67,-64 481.623,-40.7944 601.978,-29.0691 678.785,-23.5067"/>
<polygon fill="black" stroke="black" points="679.133,-26.9909 688.861,-22.7943 678.639,-20.0083 679.133,-26.9909"/>
</g>
<!-- CALL_BamCounts4Onemap&#45;&gt;CALL_BamDepths2Vcf -->
<g id="edge29" class="edge"><title>CALL_BamCounts4Onemap&#45;&gt;CALL_BamDepths2Vcf</title>
<path fill="none" stroke="black" d="M998.917,-234.907C947.991,-222.261 873.363,-203.729 820.621,-190.632"/>
<polygon fill="black" stroke="black" points="821.257,-187.184 810.708,-188.171 819.57,-193.978 821.257,-187.184"/>
</g>
<!-- CALL_BamCounts4Onemap&#45;&gt;CALL_JointReports -->
<g id="edge26" class="edge"><title>CALL_BamCounts4Onemap&#45;&gt;CALL_JointReports</title>
<path fill="none" stroke="black" d="M1050.85,-231.835C1039.57,-194.941 1007.82,-107.884 948.67,-64 916.249,-39.9457 872.961,-28.5033 835.694,-23.158"/>
<polygon fill="black" stroke="black" points="835.726,-19.6325 825.357,-21.8066 834.819,-26.5735 835.726,-19.6325"/>
</g>
<!-- CALL_GusmapMaps&#45;&gt;CALL_JointReports -->
<g id="edge16" class="edge"><title>CALL_GusmapMaps&#45;&gt;CALL_JointReports</title>
<path fill="none" stroke="black" d="M689.809,-72.7792C701.653,-63.2524 715.838,-51.8427 728.089,-41.9887"/>
<polygon fill="black" stroke="black" points="730.61,-44.4523 736.209,-35.4575 726.223,-38.9978 730.61,-44.4523"/>
</g>
<!-- CALL_SNPCallerMaps&#45;&gt;CALL_JointReports -->
<g id="edge34" class="edge"><title>CALL_SNPCallerMaps&#45;&gt;CALL_JointReports</title>
<path fill="none" stroke="black" d="M824.257,-72.7792C812.169,-63.1608 797.669,-51.6231 785.204,-41.7048"/>
<polygon fill="black" stroke="black" points="787.357,-38.9451 777.353,-35.4575 782.998,-44.4227 787.357,-38.9451"/>
</g>
<!-- CALL_vcf2onemap&#45;&gt;CALL_ScatterAt130_13 -->
<g id="edge23" class="edge"><title>CALL_vcf2onemap&#45;&gt;CALL_ScatterAt130_13</title>
<path fill="none" stroke="black" d="M530.132,-156.075C521.955,-146.557 511.533,-134.423 502.135,-123.482"/>
<polygon fill="black" stroke="black" points="504.691,-121.086 495.52,-115.781 499.381,-125.647 504.691,-121.086"/>
</g>
<!-- CALL_vcf2onemap&#45;&gt;CALL_DefaultMaps -->
<g id="edge28" class="edge"><title>CALL_vcf2onemap&#45;&gt;CALL_DefaultMaps</title>
<path fill="none" stroke="black" d="M501.977,-159.68C461.44,-147.032 400.114,-127.899 354.669,-113.72"/>
<polygon fill="black" stroke="black" points="355.525,-110.321 344.937,-110.683 353.44,-117.003 355.525,-110.321"/>
</g>
<!-- CALL_vcf2onemap&#45;&gt;CALL_SNPCallerMaps -->
<g id="edge10" class="edge"><title>CALL_vcf2onemap&#45;&gt;CALL_SNPCallerMaps</title>
<path fill="none" stroke="black" d="M592.326,-160.812C642.849,-147.892 723.128,-127.361 780.587,-112.667"/>
<polygon fill="black" stroke="black" points="781.499,-116.047 790.32,-110.178 779.764,-109.265 781.499,-116.047"/>
</g>
<!-- CALL_CalculateVcfMetrics&#45;&gt;CALL_JointReports -->
<g id="edge15" class="edge"><title>CALL_CalculateVcfMetrics&#45;&gt;CALL_JointReports</title>
<path fill="none" stroke="black" d="M1255.43,-232.131C1210.3,-195.435 1096.71,-108.117 986.67,-64 936.989,-44.0813 877.633,-32.7511 831.664,-26.4423"/>
<polygon fill="black" stroke="black" points="831.846,-22.9361 821.473,-25.0956 830.929,-29.8757 831.846,-22.9361"/>
</g>
<!-- CALL_FreebayesGenotyping&#45;&gt;SCATTER_0_VARIABLE_vcf -->
<g id="edge36" class="edge"><title>CALL_FreebayesGenotyping&#45;&gt;SCATTER_0_VARIABLE_vcf</title>
<path fill="none" stroke="black" d="M863.488,-307.369C828.107,-296.46 782.577,-282.422 745.806,-271.084"/>
<polygon fill="black" stroke="black" points="746.759,-267.715 736.172,-268.113 744.697,-274.404 746.759,-267.715"/>
</g>
<!-- CALL_FreebayesGenotyping&#45;&gt;CALL_BamCounts4Onemap -->
<g id="edge27" class="edge"><title>CALL_FreebayesGenotyping&#45;&gt;CALL_BamCounts4Onemap</title>
<path fill="none" stroke="black" d="M956.847,-305.169C975.372,-295.015 997.941,-282.644 1016.83,-272.289"/>
<polygon fill="black" stroke="black" points="1018.69,-275.262 1025.78,-267.386 1015.33,-269.123 1018.69,-275.262"/>
</g>
<!-- CALL_FreebayesGenotyping&#45;&gt;CALL_CalculateVcfMetrics -->
<g id="edge24" class="edge"><title>CALL_FreebayesGenotyping&#45;&gt;CALL_CalculateVcfMetrics</title>
<path fill="none" stroke="black" d="M996.743,-310.554C1045.65,-301.107 1110.5,-288.284 1167.67,-276 1180.71,-273.197 1194.61,-270.079 1207.95,-267.021"/>
<polygon fill="black" stroke="black" points="1209.06,-270.358 1218.01,-264.702 1207.48,-263.537 1209.06,-270.358"/>
</g>
</g>
</svg>
