<?xml version="1.0" encoding="UTF-8" standalone="no"?>
<!DOCTYPE svg PUBLIC "-//W3C//DTD SVG 1.1//EN"
 "http://www.w3.org/Graphics/SVG/1.1/DTD/svg11.dtd">
<!-- Generated by graphviz version 2.38.0 (20140413.2041)
 -->
<!-- Title: SimulatedReads Pages: 1 -->
<svg width="252pt" height="268pt"
 viewBox="0.00 0.00 252.00 268.00" xmlns="http://www.w3.org/2000/svg" xmlns:xlink="http://www.w3.org/1999/xlink">
<g id="graph0" class="graph" transform="scale(1 1) rotate(0) translate(4 264)">
<title>SimulatedReads</title>
<polygon fill="white" stroke="none" points="-4,4 -4,-264 248,-264 248,4 -4,4"/>
<g id="clust1" class="cluster"><title>cluster_0</title>
<polygon fill="white" stroke="black" points="8,-64 8,-196 236,-196 236,-64 8,-64"/>
</g>
<!-- CALL_ProduceFamiliesSeeds -->
<g id="node1" class="node"><title>CALL_ProduceFamiliesSeeds</title>
<ellipse fill="none" stroke="black" cx="122" cy="-242" rx="105.881" ry="18"/>
<text text-anchor="middle" x="122" y="-238.3" font-family="Times,serif" font-size="14.00">call ProduceFamiliesSeeds</text>
</g>
<!-- SCATTER_0_VARIABLE_seed -->
<g id="node2" class="node"><title>SCATTER_0_VARIABLE_seed</title>
<polygon fill="none" stroke="black" points="227.638,-170 174.819,-188 69.1809,-188 16.3619,-170 69.1809,-152 174.819,-152 227.638,-170"/>
<text text-anchor="middle" x="122" y="-166.3" font-family="Times,serif" font-size="14.00">scatter over Int as seed</text>
</g>
<!-- CALL_ProduceFamiliesSeeds&#45;&gt;SCATTER_0_VARIABLE_seed -->
<g id="edge1" class="edge"><title>CALL_ProduceFamiliesSeeds&#45;&gt;SCATTER_0_VARIABLE_seed</title>
<path fill="none" stroke="black" d="M122,-223.697C122,-215.983 122,-206.712 122,-198.112"/>
<polygon fill="black" stroke="black" points="125.5,-198.104 122,-188.104 118.5,-198.104 125.5,-198.104"/>
</g>
<!-- CALL_ReadSimulations -->
<g id="node3" class="node"><title>CALL_ReadSimulations</title>
<ellipse fill="none" stroke="black" cx="122" cy="-94" rx="86.3872" ry="18"/>
<ellipse fill="none" stroke="black" cx="122" cy="-94" rx="90.3847" ry="22"/>
<text text-anchor="middle" x="122" y="-90.3" font-family="Times,serif" font-size="14.00">call ReadSimulations</text>
</g>
<!-- SCATTER_0_VARIABLE_seed&#45;&gt;CALL_ReadSimulations -->
<g id="edge2" class="edge"><title>SCATTER_0_VARIABLE_seed&#45;&gt;CALL_ReadSimulations</title>
<path fill="none" stroke="black" d="M122,-151.837C122,-144.165 122,-134.878 122,-126.053"/>
<polygon fill="black" stroke="black" points="125.5,-126.032 122,-116.032 118.5,-126.032 125.5,-126.032"/>
</g>
<!-- CALL_JointTables -->
<g id="node4" class="node"><title>CALL_JointTables</title>
<ellipse fill="none" stroke="black" cx="122" cy="-18" rx="66.0889" ry="18"/>
<text text-anchor="middle" x="122" y="-14.3" font-family="Times,serif" font-size="14.00">call JointTables</text>
</g>
<!-- CALL_ReadSimulations&#45;&gt;CALL_JointTables -->
<g id="edge3" class="edge"><title>CALL_ReadSimulations&#45;&gt;CALL_JointTables</title>
<path fill="none" stroke="black" d="M122,-71.9925C122,-64.0608 122,-54.9149 122,-46.4778"/>
<polygon fill="black" stroke="black" points="125.5,-46.3146 122,-36.3147 118.5,-46.3147 125.5,-46.3146"/>
</g>
</g>
</svg>
