<?xml version="1.0" encoding="UTF-8" standalone="no"?>
<!DOCTYPE svg PUBLIC "-//W3C//DTD SVG 1.1//EN"
 "http://www.w3.org/Graphics/SVG/1.1/DTD/svg11.dtd">
<!-- Generated by graphviz version 2.38.0 (20140413.2041)
 -->
<!-- Title: SNPCallerMaps Pages: 1 -->
<svg width="314pt" height="188pt"
 viewBox="0.00 0.00 313.64 188.00" xmlns="http://www.w3.org/2000/svg" xmlns:xlink="http://www.w3.org/1999/xlink">
<g id="graph0" class="graph" transform="scale(1 1) rotate(0) translate(4 184)">
<title>SNPCallerMaps</title>
<polygon fill="white" stroke="none" points="-4,4 -4,-184 309.637,-184 309.637,4 -4,4"/>
<!-- CALL_FiltersReport -->
<g id="node1" class="node"><title>CALL_FiltersReport</title>
<ellipse fill="none" stroke="black" cx="72.1436" cy="-90" rx="72.2875" ry="18"/>
<text text-anchor="middle" x="72.1436" y="-86.3" font-family="Times,serif" font-size="14.00">call FiltersReport</text>
</g>
<!-- CALL_MapsReport -->
<g id="node2" class="node"><title>CALL_MapsReport</title>
<ellipse fill="none" stroke="black" cx="72.1436" cy="-18" rx="69.5877" ry="18"/>
<text text-anchor="middle" x="72.1436" y="-14.3" font-family="Times,serif" font-size="14.00">call MapsReport</text>
</g>
<!-- CALL_FiltersReport&#45;&gt;CALL_MapsReport -->
<g id="edge1" class="edge"><title>CALL_FiltersReport&#45;&gt;CALL_MapsReport</title>
<path fill="none" stroke="black" d="M72.1436,-71.6966C72.1436,-63.9827 72.1436,-54.7125 72.1436,-46.1124"/>
<polygon fill="black" stroke="black" points="75.6437,-46.1043 72.1436,-36.1043 68.6437,-46.1044 75.6437,-46.1043"/>
</g>
<!-- CALL_GQProbs -->
<g id="node3" class="node"><title>CALL_GQProbs</title>
<ellipse fill="none" stroke="black" cx="153.144" cy="-162" rx="58.4896" ry="18"/>
<text text-anchor="middle" x="153.144" y="-158.3" font-family="Times,serif" font-size="14.00">call GQProbs</text>
</g>
<!-- CALL_GQProbs&#45;&gt;CALL_FiltersReport -->
<g id="edge3" class="edge"><title>CALL_GQProbs&#45;&gt;CALL_FiltersReport</title>
<path fill="none" stroke="black" d="M134.357,-144.765C123.801,-135.642 110.45,-124.105 98.8256,-114.059"/>
<polygon fill="black" stroke="black" points="100.964,-111.28 91.1089,-107.39 96.3865,-116.577 100.964,-111.28"/>
</g>
<!-- CALL_ErrorsReport -->
<g id="node4" class="node"><title>CALL_ErrorsReport</title>
<ellipse fill="none" stroke="black" cx="234.144" cy="-90" rx="71.4873" ry="18"/>
<text text-anchor="middle" x="234.144" y="-86.3" font-family="Times,serif" font-size="14.00">call ErrorsReport</text>
</g>
<!-- CALL_GQProbs&#45;&gt;CALL_ErrorsReport -->
<g id="edge2" class="edge"><title>CALL_GQProbs&#45;&gt;CALL_ErrorsReport</title>
<path fill="none" stroke="black" d="M171.93,-144.765C182.486,-135.642 195.837,-124.105 207.462,-114.059"/>
<polygon fill="black" stroke="black" points="209.901,-116.577 215.178,-107.39 205.324,-111.28 209.901,-116.577"/>
</g>
</g>
</svg>
