<?xml version="1.0" encoding="UTF-8" standalone="no"?>
<!DOCTYPE svg PUBLIC "-//W3C//DTD SVG 1.1//EN"
 "http://www.w3.org/Graphics/SVG/1.1/DTD/svg11.dtd">
<!-- Generated by graphviz version 2.38.0 (20140413.2041)
 -->
<!-- Title: SNPCallerMaps Pages: 1 -->
<svg width="350pt" height="188pt"
 viewBox="0.00 0.00 350.49 188.00" xmlns="http://www.w3.org/2000/svg" xmlns:xlink="http://www.w3.org/1999/xlink">
<g id="graph0" class="graph" transform="scale(1 1) rotate(0) translate(4 184)">
<title>SNPCallerMaps</title>
<polygon fill="white" stroke="none" points="-4,4 -4,-184 346.486,-184 346.486,4 -4,4"/>
<!-- CALL_GQProbs -->
<g id="node1" class="node"><title>CALL_GQProbs</title>
<ellipse fill="none" stroke="black" cx="179.042" cy="-162" rx="58.4896" ry="18"/>
<text text-anchor="middle" x="179.042" y="-158.3" font-family="Times,serif" font-size="14.00">call GQProbs</text>
</g>
<!-- CALL_FiltersReportEmp -->
<g id="node2" class="node"><title>CALL_FiltersReportEmp</title>
<ellipse fill="none" stroke="black" cx="89.0421" cy="-90" rx="89.0842" ry="18"/>
<text text-anchor="middle" x="89.0421" y="-86.3" font-family="Times,serif" font-size="14.00">call FiltersReportEmp</text>
</g>
<!-- CALL_GQProbs&#45;&gt;CALL_FiltersReportEmp -->
<g id="edge1" class="edge"><title>CALL_GQProbs&#45;&gt;CALL_FiltersReportEmp</title>
<path fill="none" stroke="black" d="M158.62,-145.116C146.68,-135.829 131.41,-123.953 118.219,-113.693"/>
<polygon fill="black" stroke="black" points="120.365,-110.928 110.323,-107.552 116.067,-116.454 120.365,-110.928"/>
</g>
<!-- CALL_CheckDepths -->
<g id="node4" class="node"><title>CALL_CheckDepths</title>
<ellipse fill="none" stroke="black" cx="269.042" cy="-90" rx="73.387" ry="18"/>
<text text-anchor="middle" x="269.042" y="-86.3" font-family="Times,serif" font-size="14.00">call CheckDepths</text>
</g>
<!-- CALL_GQProbs&#45;&gt;CALL_CheckDepths -->
<g id="edge3" class="edge"><title>CALL_GQProbs&#45;&gt;CALL_CheckDepths</title>
<path fill="none" stroke="black" d="M199.464,-145.116C211.49,-135.763 226.894,-123.782 240.149,-113.472"/>
<polygon fill="black" stroke="black" points="242.331,-116.209 248.076,-107.307 238.034,-110.684 242.331,-116.209"/>
</g>
<!-- CALL_MapsReportEmp -->
<g id="node3" class="node"><title>CALL_MapsReportEmp</title>
<ellipse fill="none" stroke="black" cx="89.0421" cy="-18" rx="87.1846" ry="18"/>
<text text-anchor="middle" x="89.0421" y="-14.3" font-family="Times,serif" font-size="14.00">call MapsReportEmp</text>
</g>
<!-- CALL_FiltersReportEmp&#45;&gt;CALL_MapsReportEmp -->
<g id="edge2" class="edge"><title>CALL_FiltersReportEmp&#45;&gt;CALL_MapsReportEmp</title>
<path fill="none" stroke="black" d="M89.0421,-71.6966C89.0421,-63.9827 89.0421,-54.7125 89.0421,-46.1124"/>
<polygon fill="black" stroke="black" points="92.5422,-46.1043 89.0421,-36.1043 85.5422,-46.1044 92.5422,-46.1043"/>
</g>
</g>
</svg>
