<?xml version="1.0" encoding="UTF-8" standalone="no"?>
<!DOCTYPE svg PUBLIC "-//W3C//DTD SVG 1.1//EN"
 "http://www.w3.org/Graphics/SVG/1.1/DTD/svg11.dtd">
<!-- Generated by graphviz version 2.38.0 (20140413.2041)
 -->
<!-- Title: SupermassaMaps Pages: 1 -->
<svg width="402pt" height="348pt"
 viewBox="0.00 0.00 402.00 348.00" xmlns="http://www.w3.org/2000/svg" xmlns:xlink="http://www.w3.org/1999/xlink">
<g id="graph0" class="graph" transform="scale(1 1) rotate(0) translate(4 344)">
<title>SupermassaMaps</title>
<polygon fill="white" stroke="none" points="-4,4 -4,-344 398,-344 398,4 -4,4"/>
<g id="clust1" class="cluster"><title>cluster_0</title>
<polygon fill="white" stroke="black" points="8,-8 8,-204 386,-204 386,-8 8,-8"/>
</g>
<!-- CALL_SupermassaProbs -->
<g id="node1" class="node"><title>CALL_SupermassaProbs</title>
<ellipse fill="none" stroke="black" cx="101" cy="-322" rx="88.2844" ry="18"/>
<text text-anchor="middle" x="101" y="-318.3" font-family="Times,serif" font-size="14.00">call SupermassaProbs</text>
</g>
<!-- CALL_CheckDepths -->
<g id="node2" class="node"><title>CALL_CheckDepths</title>
<ellipse fill="none" stroke="black" cx="89" cy="-106" rx="73.387" ry="18"/>
<text text-anchor="middle" x="89" y="-102.3" font-family="Times,serif" font-size="14.00">call CheckDepths</text>
</g>
<!-- CALL_SupermassaProbs&#45;&gt;CALL_CheckDepths -->
<g id="edge1" class="edge"><title>CALL_SupermassaProbs&#45;&gt;CALL_CheckDepths</title>
<path fill="none" stroke="black" d="M66.5987,-305.239C51.1945,-296.44 34.2317,-283.995 24,-268 8.44764,-243.687 15.4533,-232.757 13,-204 11.3377,-184.515 3.95371,-177.337 13,-160 20.1343,-146.327 32.5846,-135.462 45.3683,-127.219"/>
<polygon fill="black" stroke="black" points="47.426,-130.066 54.2107,-121.929 43.8322,-124.059 47.426,-130.066"/>
</g>
<!-- CALL_GlobalError -->
<g id="node3" class="node"><title>CALL_GlobalError</title>
<ellipse fill="none" stroke="black" cx="101" cy="-250" rx="68.4888" ry="18"/>
<text text-anchor="middle" x="101" y="-246.3" font-family="Times,serif" font-size="14.00">call GlobalError</text>
</g>
<!-- CALL_SupermassaProbs&#45;&gt;CALL_GlobalError -->
<g id="edge5" class="edge"><title>CALL_SupermassaProbs&#45;&gt;CALL_GlobalError</title>
<path fill="none" stroke="black" d="M101,-303.697C101,-295.983 101,-286.712 101,-278.112"/>
<polygon fill="black" stroke="black" points="104.5,-278.104 101,-268.104 97.5001,-278.104 104.5,-278.104"/>
</g>
<!-- SCATTER_0_VARIABLE_objects -->
<g id="node4" class="node"><title>SCATTER_0_VARIABLE_objects</title>
<polygon fill="none" stroke="black" points="371.728,-178 284.364,-196 109.636,-196 22.2721,-178 109.636,-160 284.364,-160 371.728,-178"/>
<text text-anchor="middle" x="197" y="-174.3" font-family="Times,serif" font-size="14.00">scatter over Pair[String, File] as objects</text>
</g>
<!-- CALL_SupermassaProbs&#45;&gt;SCATTER_0_VARIABLE_objects -->
<g id="edge8" class="edge"><title>CALL_SupermassaProbs&#45;&gt;SCATTER_0_VARIABLE_objects</title>
<path fill="none" stroke="black" d="M134.726,-305.281C150.168,-296.426 167.359,-283.922 178,-268 190.239,-249.687 194.783,-224.924 196.383,-206.169"/>
<polygon fill="black" stroke="black" points="199.876,-206.38 197.01,-196.18 192.89,-205.941 199.876,-206.38"/>
</g>
<!-- CALL_GlobalError&#45;&gt;SCATTER_0_VARIABLE_objects -->
<g id="edge2" class="edge"><title>CALL_GlobalError&#45;&gt;SCATTER_0_VARIABLE_objects</title>
<path fill="none" stroke="black" d="M123.266,-232.765C135.742,-223.667 151.512,-212.168 165.262,-202.142"/>
<polygon fill="black" stroke="black" points="167.498,-204.844 173.516,-196.124 163.374,-199.188 167.498,-204.844"/>
</g>
<!-- SCATTER_0_VARIABLE_objects&#45;&gt;CALL_CheckDepths -->
<g id="edge3" class="edge"><title>SCATTER_0_VARIABLE_objects&#45;&gt;CALL_CheckDepths</title>
<path fill="none" stroke="black" d="M170.58,-159.876C156.068,-150.47 137.923,-138.709 122.433,-128.669"/>
<polygon fill="black" stroke="black" points="123.962,-125.489 113.666,-122.987 120.154,-131.363 123.962,-125.489"/>
</g>
<!-- CALL_MapsReportEmp -->
<g id="node5" class="node"><title>CALL_MapsReportEmp</title>
<ellipse fill="none" stroke="black" cx="235" cy="-34" rx="87.1846" ry="18"/>
<text text-anchor="middle" x="235" y="-30.3" font-family="Times,serif" font-size="14.00">call MapsReportEmp</text>
</g>
<!-- SCATTER_0_VARIABLE_objects&#45;&gt;CALL_MapsReportEmp -->
<g id="edge4" class="edge"><title>SCATTER_0_VARIABLE_objects&#45;&gt;CALL_MapsReportEmp</title>
<path fill="none" stroke="black" d="M191.806,-159.697C187.205,-141.332 182.429,-111.743 191,-88 194.816,-77.4299 201.759,-67.4786 209.019,-59.116"/>
<polygon fill="black" stroke="black" points="211.744,-61.3254 215.985,-51.6166 206.615,-56.5612 211.744,-61.3254"/>
</g>
<!-- CALL_FiltersReportEmp -->
<g id="node6" class="node"><title>CALL_FiltersReportEmp</title>
<ellipse fill="none" stroke="black" cx="289" cy="-106" rx="89.0842" ry="18"/>
<text text-anchor="middle" x="289" y="-102.3" font-family="Times,serif" font-size="14.00">call FiltersReportEmp</text>
</g>
<!-- SCATTER_0_VARIABLE_objects&#45;&gt;CALL_FiltersReportEmp -->
<g id="edge6" class="edge"><title>SCATTER_0_VARIABLE_objects&#45;&gt;CALL_FiltersReportEmp</title>
<path fill="none" stroke="black" d="M219.742,-159.697C231.614,-150.663 246.292,-139.495 259.075,-129.769"/>
<polygon fill="black" stroke="black" points="261.315,-132.463 267.154,-123.622 257.076,-126.892 261.315,-132.463"/>
</g>
<!-- CALL_FiltersReportEmp&#45;&gt;CALL_MapsReportEmp -->
<g id="edge7" class="edge"><title>CALL_FiltersReportEmp&#45;&gt;CALL_MapsReportEmp</title>
<path fill="none" stroke="black" d="M275.928,-88.055C269.523,-79.7526 261.679,-69.5837 254.577,-60.3778"/>
<polygon fill="black" stroke="black" points="257.206,-58.0553 248.327,-52.2753 251.663,-62.331 257.206,-58.0553"/>
</g>
</g>
</svg>
